<svg id="Layer_1" xmlns="http://www.w3.org/2000/svg" xmlns:xlink="http://www.w3.org/1999/xlink" viewBox="0 0 160.6 156.3"><style>.st0{opacity:.5}.st1{fill:#1d4588}.st2{fill:#3967a8}.st3{fill:#fff}.st4{clip-path:url(#XMLID_2_)}</style><g id="XMLID_591_"><g id="XMLID_426_" class="st0"><g id="XMLID_455_"><path id="XMLID_456_" class="st1" d="M89.5 142.7h3.1c.1 0 .2.1.2.2v1.3c0 .1-.1.2-.2.2H88c-.1 0-.2-.1-.2-.2v-9.9c0-.1.1-.2.2-.2h1.3c.1 0 .2.1.2.2v8.4z"/></g><g id="XMLID_451_"><path id="XMLID_452_" class="st1" d="M94.4 137.2c0-1.2.6-1.9 1.9-1.9h1.4c1.2 0 1.9.6 1.9 1.9v5.3c0 1.2-.6 1.9-1.9 1.9h-1.4c-1.2 0-1.9-.6-1.9-1.9v-5.3zm3.1 5.6c.3 0 .5-.2.5-.5v-4.7c0-.3-.2-.5-.5-.5h-.8c-.3 0-.5.2-.5.5v4.7c0 .3.2.5.5.5h.8z"/></g><g id="XMLID_448_"><path id="XMLID_449_" class="st1" d="M106.5 135.4c.1 0 .2.1.2.2v8.6c0 .1-.1.2-.2.2h-1c-.1 0-.2-.1-.2-.2l-2.4-4.9v4.9c0 .1-.1.2-.2.2h-1.2c-.1 0-.2-.1-.2-.2v-8.6c0-.1.1-.2.2-.2h1c.1 0 .2.1.2.2l2.4 4.9v-4.9c0-.1.1-.2.2-.2h1.2z"/></g><g id="XMLID_444_"><path id="XMLID_445_" class="st1" d="M108.4 135.6c0-.1.1-.2.2-.2h3.1c1.2 0 1.9.7 1.9 1.9v5.3c0 1.2-.6 1.9-1.9 1.9h-3.1c-.1 0-.2-.1-.2-.2v-8.7zm2.9 7.1c.3 0 .5-.2.5-.5v-4.6c0-.3-.2-.5-.5-.5h-1.2v5.6h1.2z"/></g><g id="XMLID_440_"><path id="XMLID_441_" class="st1" d="M115 137.2c0-1.2.6-1.9 1.9-1.9h1.4c1.2 0 1.9.6 1.9 1.9v5.3c0 1.2-.6 1.9-1.9 1.9h-1.4c-1.2 0-1.9-.6-1.9-1.9v-5.3zm3.1 5.6c.3 0 .5-.2.5-.5v-4.7c0-.3-.2-.5-.5-.5h-.8c-.3 0-.5.2-.5.5v4.7c0 .3.2.5.5.5h.8z"/></g><g id="XMLID_437_"><path id="XMLID_438_" class="st1" d="M127.1 135.4c.1 0 .2.1.2.2v8.6c0 .1-.1.2-.2.2h-1c-.1 0-.2-.1-.2-.2l-2.4-4.9v4.9c0 .1-.1.2-.2.2H122c-.1 0-.2-.1-.2-.2v-8.6c0-.1.1-.2.2-.2h1c.1 0 .2.1.2.2l2.4 4.9v-4.9c0-.1.1-.2.2-.2h1.3z"/></g><g id="XMLID_434_"><path id="XMLID_435_" class="st1" d="M128.9 143c0-.2.1-.3.3-.3h1.2c.2 0 .3.1.3.3v1.3c0 .1 0 .2-.1.3l-.7 1.1c0 .1-.1.1-.2.1h-.6c-.1 0-.1-.1-.1-.2l.5-1.1h-.3c-.2 0-.3-.1-.3-.3V143z"/></g><g id="XMLID_430_"><path id="XMLID_431_" class="st1" d="M132.3 135.9c0-1.2.6-1.9 1.9-1.9h1.4c1.2 0 1.9.6 1.9 1.9v6.6c0 1.2-.6 1.9-1.9 1.9h-1.4c-1.2 0-1.9-.6-1.9-1.9v-6.6zm2.9 6.9c.3 0 .5-.2.5-.5v-6c0-.3-.2-.5-.5-.5h-.7c-.3 0-.5.2-.5.5v6c0 .3.2.5.5.5h.7z"/></g><g id="XMLID_427_"><path id="XMLID_428_" class="st1" d="M144.4 135.4c.1 0 .2.1.2.2v8.6c0 .1-.1.2-.2.2h-1c-.1 0-.2-.1-.2-.2l-2.4-4.9v4.9c0 .1-.1.2-.2.2h-1.2c-.1 0-.2-.1-.2-.2v-8.6c0-.1.1-.2.2-.2h1c.1 0 .2.1.2.2l2.4 4.9v-4.9c0-.1.1-.2.2-.2h1.2z"/></g></g><g id="XMLID_406_" class="st0"><g id="XMLID_423_"><path id="XMLID_424_" class="st1" d="M25.8 134.1c.2 0 .3.1.3.3v9.8c0 .2-.1.3-.3.3h-1.2c-.2 0-.3-.1-.3-.3v-5.8h-.1l-1.3 5.8c0 .2-.1.2-.3.2H22c-.2 0-.2-.1-.3-.2l-1.3-5.8h-.1v5.8c0 .2-.1.3-.3.3h-1c-.2 0-.3-.1-.3-.3v-9.8c0-.2.1-.3.3-.3h1.7c.2 0 .2.1.3.2l1.4 6.4 1.4-6.4c0-.2.1-.2.3-.2h1.7z"/></g><g id="XMLID_420_"><path id="XMLID_421_" class="st1" d="M32.9 136.9c0 .1-.1.2-.2.2h-3.2v2h2.4c.1 0 .2.1.2.2v1.3c0 .1-.1.2-.2.2h-2.4v1.9h3.2c.2 0 .2.1.2.2v1.3c0 .1-.1.2-.2.2h-4.8c-.1 0-.2-.1-.2-.2v-8.6c0-.1.1-.2.2-.2h4.8c.2 0 .2.1.2.2v1.3z"/></g><g id="XMLID_417_"><path id="XMLID_418_" class="st1" d="M39.6 136.9c0 .1-.1.2-.2.2h-3.2v2h2.4c.1 0 .2.1.2.2v1.3c0 .1-.1.2-.2.2h-2.4v1.9h3.2c.2 0 .2.1.2.2v1.3c0 .1-.1.2-.2.2h-4.8c-.1 0-.2-.1-.2-.2v-8.6c0-.1.1-.2.2-.2h4.8c.2 0 .2.1.2.2v1.3z"/></g><g id="XMLID_414_"><path id="XMLID_415_" class="st1" d="M45.7 135.4c.1 0 .2.1.2.2v1.3c0 .1-.1.2-.2.2h-1.5v7.1c0 .1-.1.2-.2.2h-1.3c-.1 0-.2-.1-.2-.2v-7.1H41c-.1 0-.2-.1-.2-.2v-1.3c0-.1.1-.2.2-.2h4.7z"/></g><g id="XMLID_411_"><path id="XMLID_412_" class="st1" d="M55.7 135.4c.1 0 .3.1.3.3v6.9c0 1.2-.6 1.9-1.9 1.9h-1.4c-1.2 0-1.9-.6-1.9-1.9v-6.9c0-.1.1-.3.3-.3h1.2c.1 0 .3.1.3.3v6.6c0 .3.2.5.5.5h.7c.3 0 .5-.2.5-.5v-6.6c0-.1.1-.3.3-.3h1.1z"/></g><g id="XMLID_407_"><path id="XMLID_408_" class="st1" d="M57.6 135.6c0-.1.1-.2.2-.2h3.1c1.2 0 1.9.6 1.9 1.9v2.5c0 1.2-.6 1.8-1.9 1.9h-1.6v2.6c0 .1-.1.2-.2.2h-1.3c-.1 0-.2-.1-.2-.2v-8.7zm3 4.4c.3 0 .5-.2.5-.5v-1.9c0-.3-.2-.5-.5-.5h-1.3v2.9h1.3z"/></g></g><g id="XMLID_362_"><g id="XMLID_403_"><path id="XMLID_404_" class="st1" d="M26.6 114.1c0 .2-.1.3-.3.3H22v3.5h3.3c.2 0 .3.1.3.3v1.8c0 .2-.1.3-.3.3H22v5.6c0 .2-.1.3-.3.3h-1.8c-.2 0-.3-.1-.3-.3v-13.5c0-.2.1-.3.3-.3h6.5c.2 0 .3.1.3.3v1.7z"/></g><g id="XMLID_399_"><path id="XMLID_400_" class="st1" d="M36.1 118.9c0 1.2-.4 2-1.3 2.3l1.2 4.6c.1.2-.1.3-.2.3H34c-.2 0-.3-.1-.3-.2l-1.2-4.5h-1.2v4.4c0 .2-.1.3-.3.3h-1.8c-.2 0-.3-.1-.3-.3v-13.5c0-.2.1-.3.3-.3h4.4c1.7 0 2.5.9 2.5 2.5v4.4zm-3.1.2c.5 0 .7-.2.7-.7v-3.3c0-.5-.2-.7-.7-.7h-1.7v4.7H33z"/></g><g id="XMLID_395_"><path id="XMLID_396_" class="st1" d="M38.4 114.6c0-1.7.9-2.5 2.5-2.5h2c1.7 0 2.5.9 2.5 2.5v9c0 1.7-.9 2.5-2.5 2.5h-2c-1.7 0-2.5-.9-2.5-2.5v-9zm4.1 9.2c.5 0 .7-.2.7-.7V115c0-.5-.2-.7-.7-.7h-1c-.5 0-.7.2-.7.7v8.1c0 .5.2.7.7.7h1z"/></g><g id="XMLID_392_"><path id="XMLID_393_" class="st1" d="M55.3 112c.2 0 .3.1.3.3v13.5c0 .2-.1.3-.3.3h-1.7c-.2 0-.3-.1-.3-.2l-2.7-7.5h-.1v7.5c0 .2-.1.3-.3.3h-1.8c-.2 0-.3-.1-.3-.3v-13.5c0-.2.1-.3.3-.3h1.7c.2 0 .3.1.3.2l2.7 7.5h.1v-7.4c0-.2.1-.3.3-.3h1.8z"/></g><g id="XMLID_389_"><path id="XMLID_390_" class="st1" d="M64.7 112c.2 0 .3.1.3.3v1.8c0 .2-.1.3-.3.3h-2v11.5c0 .2-.1.3-.3.3h-1.8c-.2 0-.3-.1-.3-.3v-11.5h-2c-.2 0-.3-.1-.3-.3v-1.8c0-.2.1-.3.3-.3h6.4z"/></g><g id="XMLID_386_"><path id="XMLID_387_" class="st1" d="M67.2 119c0-.2.1-.4.4-.4h2.8c.2 0 .4.1.4.4v1.6c0 .2-.1.4-.4.4h-2.8c-.2 0-.4-.1-.4-.4V119z"/></g><g id="XMLID_383_"><path id="XMLID_384_" class="st1" d="M80.4 114.1c0 .2-.1.3-.3.3h-4.4v3.5H79c.2 0 .3.1.3.3v1.7c0 .2-.1.3-.3.3h-3.4v3.6H80c.2 0 .3.1.3.3v1.8c0 .2-.1.3-.3.3h-6.5c-.2 0-.3-.1-.3-.3v-13.5c0-.2.1-.3.3-.3H80c.2 0 .3.1.3.3v1.7z"/></g><g id="XMLID_380_"><path id="XMLID_381_" class="st1" d="M90.2 112c.2 0 .3.1.3.3v13.5c0 .2-.1.3-.3.3h-1.7c-.2 0-.3-.1-.3-.2l-2.7-7.5h-.1v7.5c0 .2-.1.3-.3.3h-1.8c-.2 0-.3-.1-.3-.3v-13.5c0-.2.1-.3.3-.3H85c.2 0 .3.1.3.2l2.7 7.5h.1v-7.4c0-.2.1-.3.3-.3h1.8z"/></g><g id="XMLID_376_"><path id="XMLID_377_" class="st1" d="M93.2 112.3c0-.2.1-.3.3-.3h4.2c1.7 0 2.5.9 2.5 2.6v9c0 1.7-.9 2.5-2.5 2.5h-4.2c-.2 0-.3-.1-.3-.3v-13.5zm4 11.5c.5 0 .7-.2.7-.7v-8c0-.5-.2-.7-.7-.7h-1.6v9.4h1.6z"/></g><g id="XMLID_372_"><path id="XMLID_373_" class="st1" d="M108.1 112.3c0-.2.1-.3.3-.3h4.2c1.7 0 2.5.9 2.5 2.6v9c0 1.7-.9 2.5-2.5 2.5h-4.2c-.2 0-.3-.1-.3-.3v-13.5zm4 11.5c.5 0 .7-.2.7-.7v-8c0-.5-.2-.7-.7-.7h-1.6v9.4h1.6z"/></g><g id="XMLID_369_"><path id="XMLID_370_" class="st1" d="M124.8 114.1c0 .2-.1.3-.3.3h-4.4v3.5h3.4c.2 0 .3.1.3.3v1.7c0 .2-.1.3-.3.3h-3.4v3.6h4.4c.2 0 .3.1.3.3v1.8c0 .2-.1.3-.3.3H118c-.2 0-.3-.1-.3-.3v-13.5c0-.2.1-.3.3-.3h6.5c.2 0 .3.1.3.3v1.7z"/></g><g id="XMLID_366_"><path id="XMLID_367_" class="st1" d="M135.3 112c.3 0 .4.1.3.4l-3 13.4c-.1.2-.2.3-.4.3h-1.8c-.2 0-.3-.1-.4-.3l-3-13.4c-.1-.2.1-.4.3-.4h1.7c.2 0 .3.1.4.3l1.8 9.4 1.9-9.4c.1-.2.2-.3.4-.3h1.8z"/></g><g id="XMLID_363_"><path id="XMLID_364_" class="st1" d="M141.9 112c1.7 0 2.5.9 2.5 2.5v1.9c0 .2-.1.3-.3.3h-1.8c-.2 0-.3-.1-.3-.3V115c0-.5-.2-.7-.7-.7h-.8c-.4 0-.7.2-.7.7v2.4l4.2 1.4c.3.1.5.3.5.7v4.1c0 1.7-.9 2.5-2.5 2.5h-2c-1.6 0-2.5-.9-2.5-2.5v-1.8c0-.2.1-.3.3-.3h1.8c.2 0 .3.1.3.3v1.4c0 .5.3.7.7.7h.8c.5 0 .7-.2.7-.7v-2.3l-4.2-1.4c-.3-.1-.5-.3-.5-.7v-4.2c0-1.7.9-2.5 2.5-2.5h2z"/></g></g><g id="XMLID_357_"><g id="XMLID_360_"><path id="XMLID_361_" class="st2" d="M19.1 130.8h125.8"/></g><g id="XMLID_358_"><path id="XMLID_359_" class="st2" d="M19.1 130.4h125.8v.7H19.1z"/></g></g><g id="XMLID_354_"><g id="XMLID_355_"><path id="XMLID_356_" class="st2" d="M73.9 130.8h.7v14.5h-.7z"/></g></g><g id="XMLID_351_"><g id="XMLID_352_"><path id="XMLID_353_" transform="rotate(-60.33 84.5 42.76)" class="st1" d="M81 41.6h7.1v2.3H81z"/></g></g><g id="XMLID_348_"><g id="XMLID_349_"><path id="XMLID_350_" transform="rotate(-68.291 88.832 54.059)" class="st1" d="M87.7 50.5H90v7.1h-2.3z"/></g></g><g id="XMLID_345_"><g id="XMLID_346_"><path id="XMLID_347_" transform="rotate(-68.28 72.71 46.735)" class="st1" d="M71.6 43.2h2.3v7.1h-2.3z"/></g></g><g id="XMLID_342_"><g id="XMLID_343_"><path id="XMLID_344_" transform="rotate(-19.283 77.835 41.856)" class="st1" d="M76.7 38.3H79v7.1h-2.3z"/></g></g><g id="XMLID_339_"><g id="XMLID_340_"><path id="XMLID_341_" transform="rotate(-20.223 89.625 48.063)" class="st1" d="M86.1 46.9h7.1v2.3h-7.1z"/></g></g><g id="XMLID_332_"><g id="XMLID_336_"><path id="XMLID_337_" class="st1" d="M64.4 99h10.3c1.8 0 2.9 1.1 2.9 2.5s-1.1 2.6-2.7 2.6h-12c-2.4 0-4.1-1.7-4.1-4v-23c0-6.3-4.4-10.7-10-10.7-1.5 0-2.8-1.3-2.8-2.7 0-1.3 1.1-2.6 2.8-2.6 5.5 0 9.9-4.4 9.9-10.7V27.6c0-2.3 1.7-4 4.1-4h11.9c1.8 0 2.9 1.1 2.9 2.6 0 1.4-1 2.6-2.7 2.6H64.4v21.7c0 6.4-3.2 11.2-8.2 13.3 5 2.3 8.2 7.1 8.2 13.4V99z"/></g><g id="XMLID_333_"><path id="XMLID_334_" class="st1" d="M99.4 77.1c0-6.4 3.2-11.2 8.2-13.5-5-2.1-8.2-6.9-8.2-13.2V28.7H88.9c-1.7 0-2.7-1.2-2.7-2.6 0-1.5 1-2.6 2.8-2.6h11.8c2.4 0 4.2 1.7 4.2 4v22.9c0 6.3 4.4 10.7 9.9 10.7 1.8 0 2.9 1.3 2.9 2.6 0 1.4-1.2 2.7-2.8 2.7-5.6 0-10 4.4-10 10.7V100c0 2.3-1.7 4-4.2 4h-12c-1.6 0-2.7-1.2-2.7-2.6 0-1.4 1-2.5 2.8-2.5h10.3V77.1z"/></g></g><g id="XMLID_322_"><path id="XMLID_330_" class="st1" d="M87.6 68.1c0 .2-.1.3-.3.3H83v3.5h3.3c.2 0 .3.1.3.3V74c0 .2-.1.3-.3.3H83v5.6c0 .2-.1.3-.3.3h-1.8c-.2 0-.3-.1-.3-.3V66.3c0-.2.1-.3.3-.3h6.5c.2 0 .3.1.3.3v1.8z"/><path id="XMLID_328_" class="st1" d="M89.1 73c0-.2.1-.4.4-.4h2.8c.2 0 .4.1.4.4v1.6c0 .2-.1.4-.4.4h-2.8c-.2 0-.4-.1-.4-.4V73z"/><path id="XMLID_326_" class="st1" d="M87.6 84.2c0 .2-.1.3-.3.3h-4.4V88h3.4c.2 0 .3.1.3.3V90c0 .2-.1.3-.3.3h-3.4V94h4.4c.2 0 .3.1.3.3V96c0 .2-.1.3-.3.3h-6.5c-.2 0-.3-.1-.3-.3V82.5c0-.2.1-.3.3-.3h6.5c.2 0 .3.1.3.3v1.7z"/><path id="XMLID_323_" class="st1" d="M88.9 82.5c0-.2.1-.3.3-.3h4.2c1.7 0 2.5.9 2.5 2.6v9c0 1.7-.9 2.5-2.5 2.5h-4.2c-.2 0-.3-.1-.3-.3V82.5zm4 11.5c.5 0 .7-.2.7-.7v-8c0-.5-.2-.7-.7-.7h-1.6V94h1.6z"/></g><g id="XMLID_320_"><path id="XMLID_321_" class="st3" d="M76.4 64.8l-5.2-1 8.9-15.7 3.9 1z"/></g><g id="XMLID_178_"><defs><path id="XMLID_319_" d="M61.7 30h49.4v69.6H61.7z"/></defs><clipPath id="XMLID_2_"><use xlink:href="#XMLID_319_" overflow="visible"/></clipPath><g id="XMLID_179_" class="st4"><g id="XMLID_311_"><path id="XMLID_312_" class="st1" d="M82.2 47.8c-1.8-.9-3.5-1.1-3.9-.4L53.8 95.9c-.1.2-.1.4 0 .6.2.7 1.2 1.6 2.6 2.3 1.8.9 3.5 1.1 3.9.4l24.6-48.4c.2-.8-.9-2.1-2.7-3zm.1 3.7l-2.8 5.6-.6 1.1-2.6 5.2-3.2-1.6 2.8-5.5 3.3-6.4c.2-.4 1.1-.3 1.9.2.8.4 1.4 1.1 1.2 1.4z"/></g></g></g></g></svg>