<?xml version="1.0" encoding="utf-8"?>
<!-- Generator: Adobe Illustrator 19.2.1, SVG Export Plug-In . SVG Version: 6.00 Build 0)  -->
<svg version="1.1" id="Layer_1" xmlns="http://www.w3.org/2000/svg" xmlns:xlink="http://www.w3.org/1999/xlink" x="0px" y="0px"
	 viewBox="0 0 160.6 156.3" style="enable-background:new 0 0 160.6 156.3;" xml:space="preserve">
<style type="text/css">
	.st0{fill:#12A1C9;}
	.st1{fill:#1D4588;}
	.st2{opacity:0.21;}
	.st3{fill:#FFFFFF;}
	.st4{opacity:0.19;}
	.st5{opacity:0.2;}
	.st6{fill:none;stroke:#010101;stroke-miterlimit:10;}
	.st7{clip-path:url(#XMLID_2_);}
</style>
<g id="XMLID_491_">
	<g id="XMLID_107_">
		<g id="XMLID_131_">
			<path id="XMLID_266_" class="st0" d="M85.4,137.5h3.1c0.1,0,0.2,0.1,0.2,0.2v1.3c0,0.1-0.1,0.2-0.2,0.2h-4.6
				c-0.1,0-0.2-0.1-0.2-0.2v-9.9c0-0.1,0.1-0.2,0.2-0.2h1.3c0.1,0,0.2,0.1,0.2,0.2V137.5z"/>
		</g>
		<g id="XMLID_128_">
			<path id="XMLID_262_" class="st0" d="M90.3,132c0-1.2,0.6-1.9,1.9-1.9h1.4c1.2,0,1.9,0.6,1.9,1.9v5.3c0,1.2-0.6,1.9-1.9,1.9h-1.4
				c-1.2,0-1.9-0.6-1.9-1.9V132z M93.4,137.6c0.3,0,0.5-0.2,0.5-0.5v-4.7c0-0.3-0.2-0.5-0.5-0.5h-0.8c-0.3,0-0.5,0.2-0.5,0.5v4.7
				c0,0.3,0.2,0.5,0.5,0.5H93.4z"/>
		</g>
		<g id="XMLID_125_">
			<path id="XMLID_259_" class="st0" d="M102.4,130.2c0.1,0,0.2,0.1,0.2,0.2v8.6c0,0.1-0.1,0.2-0.2,0.2h-1c-0.1,0-0.2-0.1-0.2-0.2
				l-2.4-4.9v4.9c0,0.1-0.1,0.2-0.2,0.2h-1.2c-0.1,0-0.2-0.1-0.2-0.2v-8.6c0-0.1,0.1-0.2,0.2-0.2h1c0.1,0,0.2,0.1,0.2,0.2l2.4,4.9
				v-4.9c0-0.1,0.1-0.2,0.2-0.2H102.4z"/>
		</g>
		<g id="XMLID_122_">
			<path id="XMLID_255_" class="st0" d="M104.3,130.4c0-0.1,0.1-0.2,0.2-0.2h3.1c1.2,0,1.9,0.7,1.9,1.9v5.3c0,1.2-0.6,1.9-1.9,1.9
				h-3.1c-0.1,0-0.2-0.1-0.2-0.2V130.4z M107.2,137.5c0.3,0,0.5-0.2,0.5-0.5v-4.6c0-0.3-0.2-0.5-0.5-0.5H106v5.6H107.2z"/>
		</g>
		<g id="XMLID_119_">
			<path id="XMLID_251_" class="st0" d="M110.9,132c0-1.2,0.6-1.9,1.9-1.9h1.4c1.2,0,1.9,0.6,1.9,1.9v5.3c0,1.2-0.6,1.9-1.9,1.9
				h-1.4c-1.2,0-1.9-0.6-1.9-1.9V132z M113.9,137.6c0.3,0,0.5-0.2,0.5-0.5v-4.7c0-0.3-0.2-0.5-0.5-0.5h-0.8c-0.3,0-0.5,0.2-0.5,0.5
				v4.7c0,0.3,0.2,0.5,0.5,0.5H113.9z"/>
		</g>
		<g id="XMLID_117_">
			<path id="XMLID_248_" class="st0" d="M123,130.2c0.1,0,0.2,0.1,0.2,0.2v8.6c0,0.1-0.1,0.2-0.2,0.2h-1c-0.1,0-0.2-0.1-0.2-0.2
				l-2.4-4.9v4.9c0,0.1-0.1,0.2-0.2,0.2h-1.2c-0.1,0-0.2-0.1-0.2-0.2v-8.6c0-0.1,0.1-0.2,0.2-0.2h1c0.1,0,0.2,0.1,0.2,0.2l2.4,4.9
				v-4.9c0-0.1,0.1-0.2,0.2-0.2H123z"/>
		</g>
		<g id="XMLID_115_">
			<path id="XMLID_245_" class="st0" d="M124.8,137.8c0-0.2,0.1-0.3,0.3-0.3h1.2c0.2,0,0.3,0.1,0.3,0.3v1.3c0,0.1,0,0.2-0.1,0.3
				l-0.7,1.1c0,0.1-0.1,0.1-0.2,0.1H125c-0.1,0-0.1-0.1-0.1-0.2l0.5-1.1h-0.3c-0.2,0-0.3-0.1-0.3-0.3V137.8z"/>
		</g>
		<g id="XMLID_112_">
			<path id="XMLID_241_" class="st0" d="M128.1,130.8c0-1.2,0.6-1.9,1.9-1.9h1.4c1.2,0,1.9,0.6,1.9,1.9v6.6c0,1.2-0.6,1.9-1.9,1.9
				H130c-1.2,0-1.9-0.6-1.9-1.9V130.8z M131.1,137.6c0.3,0,0.5-0.2,0.5-0.5v-6c0-0.3-0.2-0.5-0.5-0.5h-0.7c-0.3,0-0.5,0.2-0.5,0.5v6
				c0,0.3,0.2,0.5,0.5,0.5H131.1z"/>
		</g>
		<g id="XMLID_108_">
			<path id="XMLID_238_" class="st0" d="M140.2,130.2c0.1,0,0.2,0.1,0.2,0.2v8.6c0,0.1-0.1,0.2-0.2,0.2h-1c-0.1,0-0.2-0.1-0.2-0.2
				l-2.4-4.9v4.9c0,0.1-0.1,0.2-0.2,0.2h-1.2c-0.1,0-0.2-0.1-0.2-0.2v-8.6c0-0.1,0.1-0.2,0.2-0.2h1c0.1,0,0.2,0.1,0.2,0.2l2.4,4.9
				v-4.9c0-0.1,0.1-0.2,0.2-0.2H140.2z"/>
		</g>
	</g>
	<g id="XMLID_92_">
		<g id="XMLID_105_">
			<path id="XMLID_234_" class="st0" d="M21.7,128.9c0.2,0,0.3,0.1,0.3,0.3v9.8c0,0.2-0.1,0.3-0.3,0.3h-1.2c-0.2,0-0.3-0.1-0.3-0.3
				v-5.8h-0.1l-1.3,5.8c0,0.2-0.1,0.2-0.3,0.2H18c-0.2,0-0.2-0.1-0.3-0.2l-1.3-5.8h-0.1v5.8c0,0.2-0.1,0.3-0.3,0.3h-1.2
				c-0.2,0-0.3-0.1-0.3-0.3v-9.8c0-0.2,0.1-0.3,0.3-0.3h1.7c0.2,0,0.2,0.1,0.3,0.2l1.4,6.4l1.4-6.4c0-0.2,0.1-0.2,0.3-0.2H21.7z"/>
		</g>
		<g id="XMLID_103_">
			<path id="XMLID_231_" class="st0" d="M28.8,131.7c0,0.1-0.1,0.2-0.2,0.2h-3.2v2h2.4c0.1,0,0.2,0.1,0.2,0.2v1.3
				c0,0.1-0.1,0.2-0.2,0.2h-2.4v1.9h3.2c0.2,0,0.2,0.1,0.2,0.2v1.3c0,0.1-0.1,0.2-0.2,0.2h-4.8c-0.1,0-0.2-0.1-0.2-0.2v-8.6
				c0-0.1,0.1-0.2,0.2-0.2h4.8c0.2,0,0.2,0.1,0.2,0.2V131.7z"/>
		</g>
		<g id="XMLID_101_">
			<path id="XMLID_228_" class="st0" d="M35.5,131.7c0,0.1-0.1,0.2-0.2,0.2h-3.2v2h2.4c0.1,0,0.2,0.1,0.2,0.2v1.3
				c0,0.1-0.1,0.2-0.2,0.2h-2.4v1.9h3.2c0.2,0,0.2,0.1,0.2,0.2v1.3c0,0.1-0.1,0.2-0.2,0.2h-4.8c-0.1,0-0.2-0.1-0.2-0.2v-8.6
				c0-0.1,0.1-0.2,0.2-0.2h4.8c0.2,0,0.2,0.1,0.2,0.2V131.7z"/>
		</g>
		<g id="XMLID_99_">
			<path id="XMLID_225_" class="st0" d="M41.6,130.2c0.1,0,0.2,0.1,0.2,0.2v1.3c0,0.1-0.1,0.2-0.2,0.2h-1.5v7.1
				c0,0.1-0.1,0.2-0.2,0.2h-1.3c-0.1,0-0.2-0.1-0.2-0.2v-7.1h-1.5c-0.1,0-0.2-0.1-0.2-0.2v-1.3c0-0.1,0.1-0.2,0.2-0.2H41.6z"/>
		</g>
		<g id="XMLID_97_">
			<path id="XMLID_222_" class="st0" d="M51.6,130.2c0.1,0,0.3,0.1,0.3,0.3v6.9c0,1.2-0.6,1.9-1.9,1.9h-1.4c-1.2,0-1.9-0.6-1.9-1.9
				v-6.9c0-0.1,0.1-0.3,0.3-0.3h1.2c0.1,0,0.3,0.1,0.3,0.3v6.6c0,0.3,0.2,0.5,0.5,0.5h0.7c0.3,0,0.5-0.2,0.5-0.5v-6.6
				c0-0.1,0.1-0.3,0.3-0.3H51.6z"/>
		</g>
		<g id="XMLID_93_">
			<path id="XMLID_218_" class="st0" d="M53.5,130.4c0-0.1,0.1-0.2,0.2-0.2h3.1c1.2,0,1.9,0.6,1.9,1.9v2.5c0,1.2-0.6,1.8-1.9,1.9
				l-1.6,0v2.6c0,0.1-0.1,0.2-0.2,0.2l-1.3,0c-0.1,0-0.2-0.1-0.2-0.2V130.4z M56.5,134.8c0.3,0,0.5-0.2,0.5-0.5v-1.9
				c0-0.3-0.2-0.5-0.5-0.5l-1.3,0v2.9L56.5,134.8z"/>
		</g>
	</g>
	<g id="XMLID_38_">
		<g id="XMLID_90_">
			<path id="XMLID_214_" class="st1" d="M22.5,108.9c0,0.2-0.1,0.3-0.3,0.3h-4.4v3.5h3.3c0.2,0,0.3,0.1,0.3,0.3v1.8
				c0,0.2-0.1,0.3-0.3,0.3h-3.3v5.6c0,0.2-0.1,0.3-0.3,0.3h-1.8c-0.2,0-0.3-0.1-0.3-0.3v-13.5c0-0.2,0.1-0.3,0.3-0.3h6.5
				c0.2,0,0.3,0.1,0.3,0.3V108.9z"/>
		</g>
		<g id="XMLID_87_">
			<path id="XMLID_210_" class="st1" d="M32,113.7c0,1.2-0.4,2-1.3,2.3l1.2,4.6c0.1,0.2-0.1,0.3-0.2,0.3h-1.8
				c-0.2,0-0.3-0.1-0.3-0.2l-1.2-4.5h-1.2v4.4c0,0.2-0.1,0.3-0.3,0.3h-1.8c-0.2,0-0.3-0.1-0.3-0.3v-13.5c0-0.2,0.1-0.3,0.3-0.3h4.4
				c1.7,0,2.5,0.9,2.5,2.5V113.7z M28.9,113.9c0.5,0,0.7-0.2,0.7-0.7v-3.3c0-0.5-0.2-0.7-0.7-0.7h-1.7v4.7H28.9z"/>
		</g>
		<g id="XMLID_84_">
			<path id="XMLID_206_" class="st1" d="M34.3,109.4c0-1.7,0.9-2.5,2.5-2.5h2c1.7,0,2.5,0.9,2.5,2.5v9c0,1.7-0.9,2.5-2.5,2.5h-2
				c-1.7,0-2.5-0.9-2.5-2.5V109.4z M38.4,118.7c0.5,0,0.7-0.2,0.7-0.7v-8.1c0-0.5-0.2-0.7-0.7-0.7h-1c-0.5,0-0.7,0.2-0.7,0.7v8.1
				c0,0.5,0.2,0.7,0.7,0.7H38.4z"/>
		</g>
		<g id="XMLID_82_">
			<path id="XMLID_203_" class="st1" d="M51.2,106.8c0.2,0,0.3,0.1,0.3,0.3v13.5c0,0.2-0.1,0.3-0.3,0.3h-1.7c-0.2,0-0.3-0.1-0.3-0.2
				l-2.7-7.5h-0.1v7.5c0,0.2-0.1,0.3-0.3,0.3h-1.8c-0.2,0-0.3-0.1-0.3-0.3v-13.5c0-0.2,0.1-0.3,0.3-0.3H46c0.2,0,0.3,0.1,0.3,0.2
				l2.7,7.5h0.1v-7.4c0-0.2,0.1-0.3,0.3-0.3H51.2z"/>
		</g>
		<g id="XMLID_80_">
			<path id="XMLID_200_" class="st1" d="M60.5,106.8c0.2,0,0.3,0.1,0.3,0.3v1.8c0,0.2-0.1,0.3-0.3,0.3h-2v11.5
				c0,0.2-0.1,0.3-0.3,0.3h-1.8c-0.2,0-0.3-0.1-0.3-0.3v-11.5h-2c-0.2,0-0.3-0.1-0.3-0.3v-1.8c0-0.2,0.1-0.3,0.3-0.3H60.5z"/>
		</g>
		<g id="XMLID_78_">
			<path id="XMLID_197_" class="st1" d="M63.1,113.8c0-0.2,0.1-0.4,0.4-0.4h2.8c0.2,0,0.4,0.1,0.4,0.4v1.6c0,0.2-0.1,0.4-0.4,0.4
				h-2.8c-0.2,0-0.4-0.1-0.4-0.4V113.8z"/>
		</g>
		<g id="XMLID_76_">
			<path id="XMLID_194_" class="st1" d="M76.3,108.9c0,0.2-0.1,0.3-0.3,0.3h-4.4v3.5h3.4c0.2,0,0.3,0.1,0.3,0.3v1.7
				c0,0.2-0.1,0.3-0.3,0.3h-3.4v3.6H76c0.2,0,0.3,0.1,0.3,0.3v1.8c0,0.2-0.1,0.3-0.3,0.3h-6.5c-0.2,0-0.3-0.1-0.3-0.3v-13.5
				c0-0.2,0.1-0.3,0.3-0.3H76c0.2,0,0.3,0.1,0.3,0.3V108.9z"/>
		</g>
		<g id="XMLID_74_">
			<path id="XMLID_191_" class="st1" d="M86.1,106.8c0.2,0,0.3,0.1,0.3,0.3v13.5c0,0.2-0.1,0.3-0.3,0.3h-1.7c-0.2,0-0.3-0.1-0.3-0.2
				l-2.7-7.5h-0.1v7.5c0,0.2-0.1,0.3-0.3,0.3h-1.8c-0.2,0-0.3-0.1-0.3-0.3v-13.5c0-0.2,0.1-0.3,0.3-0.3h1.7c0.2,0,0.3,0.1,0.3,0.2
				l2.7,7.5H84v-7.4c0-0.2,0.1-0.3,0.3-0.3H86.1z"/>
		</g>
		<g id="XMLID_71_">
			<path id="XMLID_187_" class="st1" d="M89,107.1c0-0.2,0.1-0.3,0.3-0.3h4.2c1.7,0,2.5,0.9,2.5,2.6v9c0,1.7-0.9,2.5-2.5,2.5h-4.2
				c-0.2,0-0.3-0.1-0.3-0.3V107.1z M93.1,118.6c0.5,0,0.7-0.2,0.7-0.7v-8c0-0.5-0.2-0.7-0.7-0.7h-1.6v9.4H93.1z"/>
		</g>
		<g id="XMLID_66_">
			<path id="XMLID_183_" class="st1" d="M104,107.1c0-0.2,0.1-0.3,0.3-0.3h4.2c1.7,0,2.5,0.9,2.5,2.6v9c0,1.7-0.9,2.5-2.5,2.5h-4.2
				c-0.2,0-0.3-0.1-0.3-0.3V107.1z M108,118.6c0.5,0,0.7-0.2,0.7-0.7v-8c0-0.5-0.2-0.7-0.7-0.7h-1.6v9.4H108z"/>
		</g>
		<g id="XMLID_47_">
			<path id="XMLID_180_" class="st1" d="M120.7,108.9c0,0.2-0.1,0.3-0.3,0.3H116v3.5h3.4c0.2,0,0.3,0.1,0.3,0.3v1.7
				c0,0.2-0.1,0.3-0.3,0.3H116v3.6h4.4c0.2,0,0.3,0.1,0.3,0.3v1.8c0,0.2-0.1,0.3-0.3,0.3h-6.5c-0.2,0-0.3-0.1-0.3-0.3v-13.5
				c0-0.2,0.1-0.3,0.3-0.3h6.5c0.2,0,0.3,0.1,0.3,0.3V108.9z"/>
		</g>
		<g id="XMLID_44_">
			<path id="XMLID_177_" class="st1" d="M131.1,106.8c0.3,0,0.4,0.1,0.3,0.4l-3,13.4c-0.1,0.2-0.2,0.3-0.4,0.3h-1.8
				c-0.2,0-0.3-0.1-0.4-0.3l-3-13.4c-0.1-0.2,0.1-0.4,0.3-0.4h1.7c0.2,0,0.3,0.1,0.4,0.3l1.8,9.4l1.9-9.4c0.1-0.2,0.2-0.3,0.4-0.3
				H131.1z"/>
		</g>
		<g id="XMLID_39_">
			<path id="XMLID_174_" class="st1" d="M137.7,106.8c1.7,0,2.5,0.9,2.5,2.5v1.9c0,0.2-0.1,0.3-0.3,0.3h-1.8c-0.2,0-0.3-0.1-0.3-0.3
				v-1.4c0-0.5-0.2-0.7-0.7-0.7h-0.8c-0.4,0-0.7,0.2-0.7,0.7v2.4l4.2,1.4c0.3,0.1,0.5,0.3,0.5,0.7v4.1c0,1.7-0.9,2.5-2.5,2.5h-2
				c-1.6,0-2.5-0.9-2.5-2.5v-1.8c0-0.2,0.1-0.3,0.3-0.3h1.8c0.2,0,0.3,0.1,0.3,0.3v1.4c0,0.5,0.3,0.7,0.7,0.7h0.8
				c0.5,0,0.7-0.2,0.7-0.7v-2.3l-4.2-1.4c-0.3-0.1-0.5-0.3-0.5-0.7v-4.2c0-1.7,0.9-2.5,2.5-2.5H137.7z"/>
		</g>
	</g>
	<g id="XMLID_35_">
		<g id="XMLID_36_">
			<rect id="XMLID_169_" x="15" y="125.2" class="st1" width="125.8" height="0.7"/>
		</g>
	</g>
	<g id="XMLID_33_">
		<g id="XMLID_34_">
			<rect id="XMLID_166_" x="69.8" y="125.6" class="st1" width="0.7" height="14.5"/>
		</g>
	</g>
	<g id="XMLID_494_">
		<g id="XMLID_165_">
			<polygon id="XMLID_539_" class="st0" points="104.9,58.6 100.4,70 99.6,76.2 96.8,98.9 58.7,98.9 58.7,68.6 50.5,58.6 55.6,53.3 
				58.7,50.1 58.7,18.4 97.9,18.4 97.9,18.5 100.4,51.2 			"/>
		</g>
		<g id="XMLID_136_" class="st2">
			<path id="XMLID_537_" class="st3" d="M112.8,56.6c-0.4,1.6-1,3.2-1.6,4.7c-0.1,0-0.1,0-0.2,0c-5.6,0-10,4.4-10,10.7v3.1
				c-0.4,0.4-0.9,0.7-1.3,1.1c-1.4,1.1-2.9,2.1-4.4,2.9c-1.1,0.6-2.3,1.2-3.5,1.7c-0.8,0.3-1.5,0.6-2.3,0.9
				c-0.8,0.3-1.5,0.5-2.3,0.8c-0.8,0.2-1.6,0.4-2.4,0.6c-0.8,0.2-1.5,0.3-2.3,0.4c-1.9,0.3-3.8,0.4-5.7,0.4c-0.1,0-0.2,0-0.2,0
				c-5.8,0-11.3-1.4-16.2-3.8c-0.5-0.3-1.1-0.5-1.6-0.8c-1.4-0.8-2.8-1.7-4.1-2.6V72c0-6.3-4.4-10.7-10-10.7c-1.5,0-2.7-1.3-2.7-2.7
				c0-1.3,1.1-2.6,2.8-2.6c5,0,9.1-3.6,9.8-8.9c0-0.2,0-0.5,0-0.7c0-0.8,0-1.6,0.1-2.4V22.4c0-2.3,1.7-4,4.1-4h26.1
				c0.1,0,0.1,0,0.2,0h11.8c0.1,0,0.1,0,0.1,0h1l0,0.1c1.8,0.4,3.1,1.9,3.1,3.9v22.9c0,6.3,4.4,10.7,9.9,10.7
				C111.7,55.9,112.3,56.2,112.8,56.6z"/>
		</g>
		<g id="XMLID_663_" class="st4">
			<path id="XMLID_523_" class="st3" d="M99.9,46.3c0,2.9-0.6,5.8-1.6,8.3c-2.3,5.9-7,10.5-12.9,12.8c-0.1,0.1-0.3,0.1-0.4,0.2
				c-0.8,0.3-1.7,0.6-2.5,0.8C80.8,68.8,79,69,77.2,69c-0.2,0-0.5,0-0.7,0c-8.9-0.3-16.6-5.7-20-13.4c-0.3-0.7-0.6-1.5-0.9-2.2
				c-0.7-2-1-4.1-1.1-6.3c0-0.2,0-0.5,0-0.7c0-0.8,0-1.6,0.1-2.4c0.4-4,1.9-7.7,4.1-10.8c0.5-0.7,1-1.4,1.6-2
				c4.2-4.6,10.2-7.5,16.9-7.5c7.4,0,13.9,3.5,18.1,9C98.2,36.3,99.9,41.1,99.9,46.3z"/>
		</g>
		<g id="XMLID_133_" class="st5">
			<circle id="XMLID_4_" class="st3" cx="76.7" cy="46.4" r="13.8"/>
		</g>
		<g id="XMLID_156_">
			<g id="XMLID_157_">
				
					<rect id="XMLID_127_" x="76.9" y="36.4" transform="matrix(0.495 -0.8689 0.8689 0.495 7.9531 88.8223)" class="st1" width="7.1" height="2.3"/>
			</g>
		</g>
		<g id="XMLID_154_">
			<g id="XMLID_155_">
				
					<rect id="XMLID_94_" x="83.6" y="45.3" transform="matrix(0.3699 -0.9291 0.9291 0.3699 7.9812 109.5066)" class="st1" width="2.3" height="7.1"/>
			</g>
		</g>
		<g id="XMLID_152_">
			<g id="XMLID_153_">
				
					<rect id="XMLID_65_" x="67.4" y="38" transform="matrix(0.37 -0.929 0.929 0.37 4.6235 89.9003)" class="st1" width="2.3" height="7.1"/>
			</g>
		</g>
		<g id="XMLID_150_">
			<g id="XMLID_151_">
				
					<rect id="XMLID_62_" x="72.6" y="33.1" transform="matrix(0.9439 -0.3303 0.3303 0.9439 -7.9745 26.4075)" class="st1" width="2.3" height="7.1"/>
			</g>
		</g>
		<g id="XMLID_148_">
			<g id="XMLID_149_">
				
					<rect id="XMLID_59_" x="82" y="41.7" transform="matrix(0.9384 -0.3457 0.3457 0.9384 -9.5489 32.2054)" class="st1" width="7.1" height="2.3"/>
			</g>
		</g>
		<g id="XMLID_158_">
			<g id="XMLID_162_">
				<path id="XMLID_51_" class="st1" d="M70.6,93.8H60.3V72c0-6.4-3.2-11.1-8.2-13.4c1.7-0.7,3.2-1.7,4.4-3
					c2.4-2.5,3.9-6.1,3.9-10.3V23.5h10.4c1.7,0,2.7-1.2,2.7-2.6c0-1.5-1.1-2.6-2.9-2.6H58.7c-2.4,0-4.1,1.7-4.1,4v22.9
					c0,0.6,0,1.2-0.1,1.8c-0.7,5.3-4.8,8.9-9.8,8.9c-1.7,0-2.8,1.3-2.8,2.6c0,1.4,1.2,2.7,2.7,2.7c5.6,0,10,4.4,10,10.7v22.9
					c0,2.3,1.7,4,4.1,4h12c0.1,0,0.1,0,0.2,0c1.6-0.1,2.6-1.3,2.6-2.6C73.5,94.9,72.4,93.8,70.6,93.8z"/>
			</g>
			<g id="XMLID_160_">
				<path id="XMLID_48_" class="st1" d="M112.8,56.6c-0.5-0.4-1.1-0.6-1.9-0.6c-5.5,0-9.9-4.4-9.9-10.7V22.4c0-1.9-1.2-3.4-3.1-3.9
					c-0.3-0.1-0.6-0.1-1-0.1c0,0-0.1,0-0.1,0H85c-0.1,0-0.1,0-0.2,0c-1.7,0.1-2.7,1.2-2.7,2.6c0,1.4,1,2.6,2.7,2.6h10.4v21.7
					c0,3.7,1.1,6.9,3.1,9.3c1.4,1.7,3.1,3,5.2,3.9c-5,2.3-8.2,7.1-8.2,13.5v21.8H85c-1.8,0-2.8,1.1-2.8,2.5c0,1.4,1.1,2.6,2.7,2.6
					h12c2.4,0,4.2-1.7,4.2-4V72c0-6.3,4.4-10.7,10-10.7c0.1,0,0.1,0,0.2,0c1.5-0.1,2.6-1.3,2.6-2.7
					C113.8,57.8,113.4,57.1,112.8,56.6z"/>
			</g>
		</g>
		<g id="XMLID_134_">
			<path id="XMLID_5_" class="st3" d="M83.2,60.9h-6.5c-0.2,0-0.3,0.1-0.3,0.3v13.5c0,0.2,0.1,0.3,0.3,0.3h1.8
				c0.2,0,0.3-0.1,0.3-0.3V69h3.3c0.2,0,0.3-0.1,0.3-0.3V67c0-0.2-0.1-0.3-0.3-0.3h-3.3v-3.5h4.4c0.2,0,0.3-0.1,0.3-0.3v-1.8
				C83.5,61,83.4,60.9,83.2,60.9z"/>
			<path id="XMLID_6_" class="st3" d="M88.1,67.4h-2.8c-0.2,0-0.3,0.1-0.3,0.2c0,0.1-0.1,0.1-0.1,0.2v1.6c0,0.2,0.1,0.4,0.4,0.4h2.8
				c0.2,0,0.4-0.1,0.4-0.4v-1.6C88.4,67.6,88.3,67.4,88.1,67.4z"/>
			<path id="XMLID_7_" class="st3" d="M83.2,79.4c0.2,0,0.3-0.1,0.3-0.3v-1.8c0-0.2-0.1-0.3-0.3-0.3h-6.5c-0.2,0-0.3,0.1-0.3,0.3
				v13.5c0,0.2,0.1,0.3,0.3,0.3h6.5c0.2,0,0.3-0.1,0.3-0.3V89c0-0.2-0.1-0.3-0.3-0.3h-4.4v-3.6h3.4c0.2,0,0.3-0.1,0.3-0.3v-1.7
				c0-0.2-0.1-0.3-0.3-0.3h-3.4v-3.5H83.2z"/>
			<path id="XMLID_8_" class="st3" d="M89.3,77H85c-0.2,0-0.3,0.1-0.3,0.3v13.5c0,0.2,0.1,0.3,0.3,0.3h4.2c1.7,0,2.5-0.9,2.5-2.5v-9
				C91.8,77.9,90.9,77,89.3,77z M89.5,88.1c0,0.5-0.2,0.7-0.7,0.7h-1.6v-9.4h1.6c0.5,0,0.7,0.2,0.7,0.7V88.1z"/>
		</g>
		<g id="XMLID_164_">
			<polygon id="XMLID_24_" class="st3" points="72.3,59.6 67.1,58.6 76,42.9 79.9,43.9 			"/>
		</g>
		<g id="XMLID_137_">
			<defs>
				<rect id="XMLID_22_" x="57.6" y="24.8" width="49.4" height="69.6"/>
			</defs>
			<clipPath id="XMLID_2_">
				<use xlink:href="#XMLID_22_"  style="overflow:visible;"/>
			</clipPath>
			<g id="XMLID_139_" class="st7">
				<g id="XMLID_140_">
					<path id="XMLID_17_" class="st1" d="M78.1,42.6c-1.8-0.9-3.5-1.1-3.9-0.4L49.7,90.7c-0.1,0.2-0.1,0.4,0,0.6
						c0.2,0.7,1.2,1.6,2.6,2.3c1.8,0.9,3.5,1.1,3.9,0.4l24.6-48.4C81,44.9,79.9,43.6,78.1,42.6z M78.2,46.4L75.4,52l-0.6,1.1
						l-2.6,5.2L69,56.6l2.8-5.5l3.3-6.4c0.2-0.4,1.1-0.3,1.9,0.2C77.8,45.4,78.4,46,78.2,46.4z"/>
				</g>
			</g>
		</g>
	</g>
</g>
</svg>
