<?xml version="1.0" encoding="utf-8"?>
<!-- Generator: Adobe Illustrator 19.2.1, SVG Export Plug-In . SVG Version: 6.00 Build 0)  -->
<svg version="1.1" id="Layer_1" xmlns="http://www.w3.org/2000/svg" xmlns:xlink="http://www.w3.org/1999/xlink" x="0px" y="0px"
	 viewBox="0 0 160.6 156.3" style="enable-background:new 0 0 160.6 156.3;" xml:space="preserve">
<style type="text/css">
	.st0{opacity:0.5;}
	.st1{fill:#1D4588;}
	.st2{fill:#3967A8;}
	.st3{fill:#FFFFFF;}
	.st4{clip-path:url(#XMLID_2_);}
</style>
<g id="XMLID_591_">
	<g id="XMLID_426_" class="st0">
		<g id="XMLID_455_">
			<path id="XMLID_456_" class="st1" d="M89.5,142.7h3.1c0.1,0,0.2,0.1,0.2,0.2v1.3c0,0.1-0.1,0.2-0.2,0.2H88
				c-0.1,0-0.2-0.1-0.2-0.2v-9.9c0-0.1,0.1-0.2,0.2-0.2h1.3c0.1,0,0.2,0.1,0.2,0.2V142.7z"/>
		</g>
		<g id="XMLID_451_">
			<path id="XMLID_452_" class="st1" d="M94.4,137.2c0-1.2,0.6-1.9,1.9-1.9h1.4c1.2,0,1.9,0.6,1.9,1.9v5.3c0,1.2-0.6,1.9-1.9,1.9
				h-1.4c-1.2,0-1.9-0.6-1.9-1.9V137.2z M97.5,142.8c0.3,0,0.5-0.2,0.5-0.5v-4.7c0-0.3-0.2-0.5-0.5-0.5h-0.8c-0.3,0-0.5,0.2-0.5,0.5
				v4.7c0,0.3,0.2,0.5,0.5,0.5H97.5z"/>
		</g>
		<g id="XMLID_448_">
			<path id="XMLID_449_" class="st1" d="M106.5,135.4c0.1,0,0.2,0.1,0.2,0.2v8.6c0,0.1-0.1,0.2-0.2,0.2h-1c-0.1,0-0.2-0.1-0.2-0.2
				l-2.4-4.9v4.9c0,0.1-0.1,0.2-0.2,0.2h-1.2c-0.1,0-0.2-0.1-0.2-0.2v-8.6c0-0.1,0.1-0.2,0.2-0.2h1c0.1,0,0.2,0.1,0.2,0.2l2.4,4.9
				v-4.9c0-0.1,0.1-0.2,0.2-0.2H106.5z"/>
		</g>
		<g id="XMLID_444_">
			<path id="XMLID_445_" class="st1" d="M108.4,135.6c0-0.1,0.1-0.2,0.2-0.2h3.1c1.2,0,1.9,0.7,1.9,1.9v5.3c0,1.2-0.6,1.9-1.9,1.9
				h-3.1c-0.1,0-0.2-0.1-0.2-0.2V135.6z M111.3,142.7c0.3,0,0.5-0.2,0.5-0.5v-4.6c0-0.3-0.2-0.5-0.5-0.5h-1.2v5.6H111.3z"/>
		</g>
		<g id="XMLID_440_">
			<path id="XMLID_441_" class="st1" d="M115,137.2c0-1.2,0.6-1.9,1.9-1.9h1.4c1.2,0,1.9,0.6,1.9,1.9v5.3c0,1.2-0.6,1.9-1.9,1.9
				h-1.4c-1.2,0-1.9-0.6-1.9-1.9V137.2z M118.1,142.8c0.3,0,0.5-0.2,0.5-0.5v-4.7c0-0.3-0.2-0.5-0.5-0.5h-0.8
				c-0.3,0-0.5,0.2-0.5,0.5v4.7c0,0.3,0.2,0.5,0.5,0.5H118.1z"/>
		</g>
		<g id="XMLID_437_">
			<path id="XMLID_438_" class="st1" d="M127.1,135.4c0.1,0,0.2,0.1,0.2,0.2v8.6c0,0.1-0.1,0.2-0.2,0.2h-1c-0.1,0-0.2-0.1-0.2-0.2
				l-2.4-4.9v4.9c0,0.1-0.1,0.2-0.2,0.2H122c-0.1,0-0.2-0.1-0.2-0.2v-8.6c0-0.1,0.1-0.2,0.2-0.2h1c0.1,0,0.2,0.1,0.2,0.2l2.4,4.9
				v-4.9c0-0.1,0.1-0.2,0.2-0.2H127.1z"/>
		</g>
		<g id="XMLID_434_">
			<path id="XMLID_435_" class="st1" d="M128.9,143c0-0.2,0.1-0.3,0.3-0.3h1.2c0.2,0,0.3,0.1,0.3,0.3v1.3c0,0.1,0,0.2-0.1,0.3
				l-0.7,1.1c0,0.1-0.1,0.1-0.2,0.1h-0.6c-0.1,0-0.1-0.1-0.1-0.2l0.5-1.1h-0.3c-0.2,0-0.3-0.1-0.3-0.3V143z"/>
		</g>
		<g id="XMLID_430_">
			<path id="XMLID_431_" class="st1" d="M132.3,135.9c0-1.2,0.6-1.9,1.9-1.9h1.4c1.2,0,1.9,0.6,1.9,1.9v6.6c0,1.2-0.6,1.9-1.9,1.9
				h-1.4c-1.2,0-1.9-0.6-1.9-1.9V135.9z M135.2,142.8c0.3,0,0.5-0.2,0.5-0.5v-6c0-0.3-0.2-0.5-0.5-0.5h-0.7c-0.3,0-0.5,0.2-0.5,0.5
				v6c0,0.3,0.2,0.5,0.5,0.5H135.2z"/>
		</g>
		<g id="XMLID_427_">
			<path id="XMLID_428_" class="st1" d="M144.4,135.4c0.1,0,0.2,0.1,0.2,0.2v8.6c0,0.1-0.1,0.2-0.2,0.2h-1c-0.1,0-0.2-0.1-0.2-0.2
				l-2.4-4.9v4.9c0,0.1-0.1,0.2-0.2,0.2h-1.2c-0.1,0-0.2-0.1-0.2-0.2v-8.6c0-0.1,0.1-0.2,0.2-0.2h1c0.1,0,0.2,0.1,0.2,0.2l2.4,4.9
				v-4.9c0-0.1,0.1-0.2,0.2-0.2H144.4z"/>
		</g>
	</g>
	<g id="XMLID_406_" class="st0">
		<g id="XMLID_423_">
			<path id="XMLID_424_" class="st1" d="M25.8,134.1c0.2,0,0.3,0.1,0.3,0.3v9.8c0,0.2-0.1,0.3-0.3,0.3h-1.2c-0.2,0-0.3-0.1-0.3-0.3
				v-5.8h-0.1l-1.3,5.8c0,0.2-0.1,0.2-0.3,0.2h-0.6c-0.2,0-0.2-0.1-0.3-0.2l-1.3-5.8h-0.1v5.8c0,0.2-0.1,0.3-0.3,0.3H19
				c-0.2,0-0.3-0.1-0.3-0.3v-9.8c0-0.2,0.1-0.3,0.3-0.3h1.7c0.2,0,0.2,0.1,0.3,0.2l1.4,6.4l1.4-6.4c0-0.2,0.1-0.2,0.3-0.2H25.8z"/>
		</g>
		<g id="XMLID_420_">
			<path id="XMLID_421_" class="st1" d="M32.9,136.9c0,0.1-0.1,0.2-0.2,0.2h-3.2v2h2.4c0.1,0,0.2,0.1,0.2,0.2v1.3
				c0,0.1-0.1,0.2-0.2,0.2h-2.4v1.9h3.2c0.2,0,0.2,0.1,0.2,0.2v1.3c0,0.1-0.1,0.2-0.2,0.2h-4.8c-0.1,0-0.2-0.1-0.2-0.2v-8.6
				c0-0.1,0.1-0.2,0.2-0.2h4.8c0.2,0,0.2,0.1,0.2,0.2V136.9z"/>
		</g>
		<g id="XMLID_417_">
			<path id="XMLID_418_" class="st1" d="M39.6,136.9c0,0.1-0.1,0.2-0.2,0.2h-3.2v2h2.4c0.1,0,0.2,0.1,0.2,0.2v1.3
				c0,0.1-0.1,0.2-0.2,0.2h-2.4v1.9h3.2c0.2,0,0.2,0.1,0.2,0.2v1.3c0,0.1-0.1,0.2-0.2,0.2h-4.8c-0.1,0-0.2-0.1-0.2-0.2v-8.6
				c0-0.1,0.1-0.2,0.2-0.2h4.8c0.2,0,0.2,0.1,0.2,0.2V136.9z"/>
		</g>
		<g id="XMLID_414_">
			<path id="XMLID_415_" class="st1" d="M45.7,135.4c0.1,0,0.2,0.1,0.2,0.2v1.3c0,0.1-0.1,0.2-0.2,0.2h-1.5v7.1
				c0,0.1-0.1,0.2-0.2,0.2h-1.3c-0.1,0-0.2-0.1-0.2-0.2v-7.1h-1.5c-0.1,0-0.2-0.1-0.2-0.2v-1.3c0-0.1,0.1-0.2,0.2-0.2H45.7z"/>
		</g>
		<g id="XMLID_411_">
			<path id="XMLID_412_" class="st1" d="M55.7,135.4c0.1,0,0.3,0.1,0.3,0.3v6.9c0,1.2-0.6,1.9-1.9,1.9h-1.4c-1.2,0-1.9-0.6-1.9-1.9
				v-6.9c0-0.1,0.1-0.3,0.3-0.3h1.2c0.1,0,0.3,0.1,0.3,0.3v6.6c0,0.3,0.2,0.5,0.5,0.5h0.7c0.3,0,0.5-0.2,0.5-0.5v-6.6
				c0-0.1,0.1-0.3,0.3-0.3H55.7z"/>
		</g>
		<g id="XMLID_407_">
			<path id="XMLID_408_" class="st1" d="M57.6,135.6c0-0.1,0.1-0.2,0.2-0.2h3.1c1.2,0,1.9,0.6,1.9,1.9v2.5c0,1.2-0.6,1.8-1.9,1.9
				l-1.6,0v2.6c0,0.1-0.1,0.2-0.2,0.2l-1.3,0c-0.1,0-0.2-0.1-0.2-0.2V135.6z M60.6,140c0.3,0,0.5-0.2,0.5-0.5v-1.9
				c0-0.3-0.2-0.5-0.5-0.5l-1.3,0v2.9L60.6,140z"/>
		</g>
	</g>
	<g id="XMLID_362_">
		<g id="XMLID_403_">
			<path id="XMLID_404_" class="st1" d="M26.6,114.1c0,0.2-0.1,0.3-0.3,0.3H22v3.5h3.3c0.2,0,0.3,0.1,0.3,0.3v1.8
				c0,0.2-0.1,0.3-0.3,0.3H22v5.6c0,0.2-0.1,0.3-0.3,0.3h-1.8c-0.2,0-0.3-0.1-0.3-0.3v-13.5c0-0.2,0.1-0.3,0.3-0.3h6.5
				c0.2,0,0.3,0.1,0.3,0.3V114.1z"/>
		</g>
		<g id="XMLID_399_">
			<path id="XMLID_400_" class="st1" d="M36.1,118.9c0,1.2-0.4,2-1.3,2.3l1.2,4.6c0.1,0.2-0.1,0.3-0.2,0.3H34
				c-0.2,0-0.3-0.1-0.3-0.2l-1.2-4.5h-1.2v4.4c0,0.2-0.1,0.3-0.3,0.3h-1.8c-0.2,0-0.3-0.1-0.3-0.3v-13.5c0-0.2,0.1-0.3,0.3-0.3h4.4
				c1.7,0,2.5,0.9,2.5,2.5V118.9z M33,119.1c0.5,0,0.7-0.2,0.7-0.7v-3.3c0-0.5-0.2-0.7-0.7-0.7h-1.7v4.7H33z"/>
		</g>
		<g id="XMLID_395_">
			<path id="XMLID_396_" class="st1" d="M38.4,114.6c0-1.7,0.9-2.5,2.5-2.5h2c1.7,0,2.5,0.9,2.5,2.5v9c0,1.7-0.9,2.5-2.5,2.5h-2
				c-1.7,0-2.5-0.9-2.5-2.5V114.6z M42.5,123.8c0.5,0,0.7-0.2,0.7-0.7V115c0-0.5-0.2-0.7-0.7-0.7h-1c-0.5,0-0.7,0.2-0.7,0.7v8.1
				c0,0.5,0.2,0.7,0.7,0.7H42.5z"/>
		</g>
		<g id="XMLID_392_">
			<path id="XMLID_393_" class="st1" d="M55.3,112c0.2,0,0.3,0.1,0.3,0.3v13.5c0,0.2-0.1,0.3-0.3,0.3h-1.7c-0.2,0-0.3-0.1-0.3-0.2
				l-2.7-7.5h-0.1v7.5c0,0.2-0.1,0.3-0.3,0.3h-1.8c-0.2,0-0.3-0.1-0.3-0.3v-13.5c0-0.2,0.1-0.3,0.3-0.3h1.7c0.2,0,0.3,0.1,0.3,0.2
				l2.7,7.5h0.1v-7.4c0-0.2,0.1-0.3,0.3-0.3H55.3z"/>
		</g>
		<g id="XMLID_389_">
			<path id="XMLID_390_" class="st1" d="M64.7,112c0.2,0,0.3,0.1,0.3,0.3v1.8c0,0.2-0.1,0.3-0.3,0.3h-2v11.5c0,0.2-0.1,0.3-0.3,0.3
				h-1.8c-0.2,0-0.3-0.1-0.3-0.3v-11.5h-2c-0.2,0-0.3-0.1-0.3-0.3v-1.8c0-0.2,0.1-0.3,0.3-0.3H64.7z"/>
		</g>
		<g id="XMLID_386_">
			<path id="XMLID_387_" class="st1" d="M67.2,119c0-0.2,0.1-0.4,0.4-0.4h2.8c0.2,0,0.4,0.1,0.4,0.4v1.6c0,0.2-0.1,0.4-0.4,0.4h-2.8
				c-0.2,0-0.4-0.1-0.4-0.4V119z"/>
		</g>
		<g id="XMLID_383_">
			<path id="XMLID_384_" class="st1" d="M80.4,114.1c0,0.2-0.1,0.3-0.3,0.3h-4.4v3.5H79c0.2,0,0.3,0.1,0.3,0.3v1.7
				c0,0.2-0.1,0.3-0.3,0.3h-3.4v3.6h4.4c0.2,0,0.3,0.1,0.3,0.3v1.8c0,0.2-0.1,0.3-0.3,0.3h-6.5c-0.2,0-0.3-0.1-0.3-0.3v-13.5
				c0-0.2,0.1-0.3,0.3-0.3h6.5c0.2,0,0.3,0.1,0.3,0.3V114.1z"/>
		</g>
		<g id="XMLID_380_">
			<path id="XMLID_381_" class="st1" d="M90.2,112c0.2,0,0.3,0.1,0.3,0.3v13.5c0,0.2-0.1,0.3-0.3,0.3h-1.7c-0.2,0-0.3-0.1-0.3-0.2
				l-2.7-7.5h-0.1v7.5c0,0.2-0.1,0.3-0.3,0.3h-1.8c-0.2,0-0.3-0.1-0.3-0.3v-13.5c0-0.2,0.1-0.3,0.3-0.3H85c0.2,0,0.3,0.1,0.3,0.2
				l2.7,7.5h0.1v-7.4c0-0.2,0.1-0.3,0.3-0.3H90.2z"/>
		</g>
		<g id="XMLID_376_">
			<path id="XMLID_377_" class="st1" d="M93.2,112.3c0-0.2,0.1-0.3,0.3-0.3h4.2c1.7,0,2.5,0.9,2.5,2.6v9c0,1.7-0.9,2.5-2.5,2.5h-4.2
				c-0.2,0-0.3-0.1-0.3-0.3V112.3z M97.2,123.8c0.5,0,0.7-0.2,0.7-0.7v-8c0-0.5-0.2-0.7-0.7-0.7h-1.6v9.4H97.2z"/>
		</g>
		<g id="XMLID_372_">
			<path id="XMLID_373_" class="st1" d="M108.1,112.3c0-0.2,0.1-0.3,0.3-0.3h4.2c1.7,0,2.5,0.9,2.5,2.6v9c0,1.7-0.9,2.5-2.5,2.5
				h-4.2c-0.2,0-0.3-0.1-0.3-0.3V112.3z M112.1,123.8c0.5,0,0.7-0.2,0.7-0.7v-8c0-0.5-0.2-0.7-0.7-0.7h-1.6v9.4H112.1z"/>
		</g>
		<g id="XMLID_369_">
			<path id="XMLID_370_" class="st1" d="M124.8,114.1c0,0.2-0.1,0.3-0.3,0.3h-4.4v3.5h3.4c0.2,0,0.3,0.1,0.3,0.3v1.7
				c0,0.2-0.1,0.3-0.3,0.3h-3.4v3.6h4.4c0.2,0,0.3,0.1,0.3,0.3v1.8c0,0.2-0.1,0.3-0.3,0.3h-6.5c-0.2,0-0.3-0.1-0.3-0.3v-13.5
				c0-0.2,0.1-0.3,0.3-0.3h6.5c0.2,0,0.3,0.1,0.3,0.3V114.1z"/>
		</g>
		<g id="XMLID_366_">
			<path id="XMLID_367_" class="st1" d="M135.3,112c0.3,0,0.4,0.1,0.3,0.4l-3,13.4c-0.1,0.2-0.2,0.3-0.4,0.3h-1.8
				c-0.2,0-0.3-0.1-0.4-0.3l-3-13.4c-0.1-0.2,0.1-0.4,0.3-0.4h1.7c0.2,0,0.3,0.1,0.4,0.3l1.8,9.4l1.9-9.4c0.1-0.2,0.2-0.3,0.4-0.3
				H135.3z"/>
		</g>
		<g id="XMLID_363_">
			<path id="XMLID_364_" class="st1" d="M141.9,112c1.7,0,2.5,0.9,2.5,2.5v1.9c0,0.2-0.1,0.3-0.3,0.3h-1.8c-0.2,0-0.3-0.1-0.3-0.3
				v-1.4c0-0.5-0.2-0.7-0.7-0.7h-0.8c-0.4,0-0.7,0.2-0.7,0.7v2.4l4.2,1.4c0.3,0.1,0.5,0.3,0.5,0.7v4.1c0,1.7-0.9,2.5-2.5,2.5h-2
				c-1.6,0-2.5-0.9-2.5-2.5v-1.8c0-0.2,0.1-0.3,0.3-0.3h1.8c0.2,0,0.3,0.1,0.3,0.3v1.4c0,0.5,0.3,0.7,0.7,0.7h0.8
				c0.5,0,0.7-0.2,0.7-0.7v-2.3l-4.2-1.4c-0.3-0.1-0.5-0.3-0.5-0.7v-4.2c0-1.7,0.9-2.5,2.5-2.5H141.9z"/>
		</g>
	</g>
	<g id="XMLID_357_">
		<g id="XMLID_360_">
			<line id="XMLID_361_" class="st2" x1="19.1" y1="130.8" x2="144.9" y2="130.8"/>
		</g>
		<g id="XMLID_358_">
			<rect id="XMLID_359_" x="19.1" y="130.4" class="st2" width="125.8" height="0.7"/>
		</g>
	</g>
	<g id="XMLID_354_">
		<g id="XMLID_355_">
			<rect id="XMLID_356_" x="73.9" y="130.8" class="st2" width="0.7" height="14.5"/>
		</g>
	</g>
	<g id="XMLID_351_">
		<g id="XMLID_352_">
			
				<rect id="XMLID_353_" x="81" y="41.6" transform="matrix(0.495 -0.8689 0.8689 0.495 5.5188 95.0161)" class="st1" width="7.1" height="2.3"/>
		</g>
	</g>
	<g id="XMLID_348_">
		<g id="XMLID_349_">
			
				<rect id="XMLID_350_" x="87.7" y="50.5" transform="matrix(0.3699 -0.9291 0.9291 0.3699 5.7489 116.5974)" class="st1" width="2.3" height="7.1"/>
		</g>
	</g>
	<g id="XMLID_345_">
		<g id="XMLID_346_">
			
				<rect id="XMLID_347_" x="71.6" y="43.2" transform="matrix(0.37 -0.929 0.929 0.37 2.3909 96.9903)" class="st1" width="2.3" height="7.1"/>
		</g>
	</g>
	<g id="XMLID_342_">
		<g id="XMLID_343_">
			
				<rect id="XMLID_344_" x="76.7" y="38.3" transform="matrix(0.9439 -0.3303 0.3303 0.9439 -9.4585 28.057)" class="st1" width="2.3" height="7.1"/>
		</g>
	</g>
	<g id="XMLID_339_">
		<g id="XMLID_340_">
			
				<rect id="XMLID_341_" x="86.1" y="46.9" transform="matrix(0.9384 -0.3457 0.3457 0.9384 -11.0898 33.9464)" class="st1" width="7.1" height="2.3"/>
		</g>
	</g>
	<g id="XMLID_332_">
		<g id="XMLID_336_">
			<path id="XMLID_337_" class="st1" d="M64.4,99h10.3c1.8,0,2.9,1.1,2.9,2.5c0,1.4-1.1,2.6-2.7,2.6h-12c-2.4,0-4.1-1.7-4.1-4V77.1
				c0-6.3-4.4-10.7-10-10.7c-1.5,0-2.8-1.3-2.8-2.7c0-1.3,1.1-2.6,2.8-2.6c5.5,0,9.9-4.4,9.9-10.7V27.6c0-2.3,1.7-4,4.1-4h11.9
				c1.8,0,2.9,1.1,2.9,2.6c0,1.4-1,2.6-2.7,2.6H64.4v21.7c0,6.4-3.2,11.2-8.2,13.3c5,2.3,8.2,7.1,8.2,13.4V99z"/>
		</g>
		<g id="XMLID_333_">
			<path id="XMLID_334_" class="st1" d="M99.4,77.1c0-6.4,3.2-11.2,8.2-13.5c-5-2.1-8.2-6.9-8.2-13.2V28.7H88.9
				c-1.7,0-2.7-1.2-2.7-2.6c0-1.5,1-2.6,2.8-2.6h11.8c2.4,0,4.2,1.7,4.2,4v22.9c0,6.3,4.4,10.7,9.9,10.7c1.8,0,2.9,1.3,2.9,2.6
				c0,1.4-1.2,2.7-2.8,2.7c-5.6,0-10,4.4-10,10.7v22.9c0,2.3-1.7,4-4.2,4h-12c-1.6,0-2.7-1.2-2.7-2.6c0-1.4,1-2.5,2.8-2.5h10.3V77.1
				z"/>
		</g>
	</g>
	<g id="XMLID_322_">
		<path id="XMLID_330_" class="st1" d="M87.6,68.1c0,0.2-0.1,0.3-0.3,0.3H83v3.5h3.3c0.2,0,0.3,0.1,0.3,0.3v1.8
			c0,0.2-0.1,0.3-0.3,0.3H83v5.6c0,0.2-0.1,0.3-0.3,0.3h-1.8c-0.2,0-0.3-0.1-0.3-0.3V66.3c0-0.2,0.1-0.3,0.3-0.3h6.5
			c0.2,0,0.3,0.1,0.3,0.3V68.1z"/>
		<path id="XMLID_328_" class="st1" d="M89.1,73c0-0.2,0.1-0.4,0.4-0.4h2.8c0.2,0,0.4,0.1,0.4,0.4v1.6c0,0.2-0.1,0.4-0.4,0.4h-2.8
			c-0.2,0-0.4-0.1-0.4-0.4V73z"/>
		<path id="XMLID_326_" class="st1" d="M87.6,84.2c0,0.2-0.1,0.3-0.3,0.3h-4.4v3.5h3.4c0.2,0,0.3,0.1,0.3,0.3v1.7
			c0,0.2-0.1,0.3-0.3,0.3h-3.4V94h4.4c0.2,0,0.3,0.1,0.3,0.3V96c0,0.2-0.1,0.3-0.3,0.3h-6.5c-0.2,0-0.3-0.1-0.3-0.3V82.5
			c0-0.2,0.1-0.3,0.3-0.3h6.5c0.2,0,0.3,0.1,0.3,0.3V84.2z"/>
		<path id="XMLID_323_" class="st1" d="M88.9,82.5c0-0.2,0.1-0.3,0.3-0.3h4.2c1.7,0,2.5,0.9,2.5,2.6v9c0,1.7-0.9,2.5-2.5,2.5h-4.2
			c-0.2,0-0.3-0.1-0.3-0.3V82.5z M92.9,94c0.5,0,0.7-0.2,0.7-0.7v-8c0-0.5-0.2-0.7-0.7-0.7h-1.6V94H92.9z"/>
	</g>
	<g id="XMLID_320_">
		<polygon id="XMLID_321_" class="st3" points="76.4,64.8 71.2,63.8 80.1,48.1 84,49.1 		"/>
	</g>
	<g id="XMLID_178_">
		<defs>
			<rect id="XMLID_319_" x="61.7" y="30" width="49.4" height="69.6"/>
		</defs>
		<clipPath id="XMLID_2_">
			<use xlink:href="#XMLID_319_"  style="overflow:visible;"/>
		</clipPath>
		<g id="XMLID_179_" class="st4">
			<g id="XMLID_311_">
				<path id="XMLID_312_" class="st1" d="M82.2,47.8c-1.8-0.9-3.5-1.1-3.9-0.4L53.8,95.9c-0.1,0.2-0.1,0.4,0,0.6
					c0.2,0.7,1.2,1.6,2.6,2.3c1.8,0.9,3.5,1.1,3.9,0.4l24.6-48.4C85.1,50,84,48.7,82.2,47.8z M82.3,51.5l-2.8,5.6l-0.6,1.1l-2.6,5.2
					l-3.2-1.6l2.8-5.5l3.3-6.4c0.2-0.4,1.1-0.3,1.9,0.2C81.9,50.5,82.5,51.2,82.3,51.5z"/>
			</g>
		</g>
	</g>
</g>
</svg>
