<svg id="Layer_1" xmlns="http://www.w3.org/2000/svg" xmlns:xlink="http://www.w3.org/1999/xlink" viewBox="0 0 160.6 156.3"><style>.st0{fill:#12a1c9}.st1{fill:#1d4588}.st2{opacity:.21}.st3{fill:#fff}.st4{opacity:.19}.st5{opacity:.2}.st6{fill:none;stroke:#010101;stroke-miterlimit:10}.st7{clip-path:url(#XMLID_2_)}</style><g id="XMLID_491_"><g id="XMLID_107_"><g id="XMLID_131_"><path id="XMLID_266_" class="st0" d="M85.4 137.5h3.1c.1 0 .2.1.2.2v1.3c0 .1-.1.2-.2.2h-4.6c-.1 0-.2-.1-.2-.2v-9.9c0-.1.1-.2.2-.2h1.3c.1 0 .2.1.2.2v8.4z"/></g><g id="XMLID_128_"><path id="XMLID_262_" class="st0" d="M90.3 132c0-1.2.6-1.9 1.9-1.9h1.4c1.2 0 1.9.6 1.9 1.9v5.3c0 1.2-.6 1.9-1.9 1.9h-1.4c-1.2 0-1.9-.6-1.9-1.9V132zm3.1 5.6c.3 0 .5-.2.5-.5v-4.7c0-.3-.2-.5-.5-.5h-.8c-.3 0-.5.2-.5.5v4.7c0 .3.2.5.5.5h.8z"/></g><g id="XMLID_125_"><path id="XMLID_259_" class="st0" d="M102.4 130.2c.1 0 .2.1.2.2v8.6c0 .1-.1.2-.2.2h-1c-.1 0-.2-.1-.2-.2l-2.4-4.9v4.9c0 .1-.1.2-.2.2h-1.2c-.1 0-.2-.1-.2-.2v-8.6c0-.1.1-.2.2-.2h1c.1 0 .2.1.2.2l2.4 4.9v-4.9c0-.1.1-.2.2-.2h1.2z"/></g><g id="XMLID_122_"><path id="XMLID_255_" class="st0" d="M104.3 130.4c0-.1.1-.2.2-.2h3.1c1.2 0 1.9.7 1.9 1.9v5.3c0 1.2-.6 1.9-1.9 1.9h-3.1c-.1 0-.2-.1-.2-.2v-8.7zm2.9 7.1c.3 0 .5-.2.5-.5v-4.6c0-.3-.2-.5-.5-.5H106v5.6h1.2z"/></g><g id="XMLID_119_"><path id="XMLID_251_" class="st0" d="M110.9 132c0-1.2.6-1.9 1.9-1.9h1.4c1.2 0 1.9.6 1.9 1.9v5.3c0 1.2-.6 1.9-1.9 1.9h-1.4c-1.2 0-1.9-.6-1.9-1.9V132zm3 5.6c.3 0 .5-.2.5-.5v-4.7c0-.3-.2-.5-.5-.5h-.8c-.3 0-.5.2-.5.5v4.7c0 .3.2.5.5.5h.8z"/></g><g id="XMLID_117_"><path id="XMLID_248_" class="st0" d="M123 130.2c.1 0 .2.1.2.2v8.6c0 .1-.1.2-.2.2h-1c-.1 0-.2-.1-.2-.2l-2.4-4.9v4.9c0 .1-.1.2-.2.2H118c-.1 0-.2-.1-.2-.2v-8.6c0-.1.1-.2.2-.2h1c.1 0 .2.1.2.2l2.4 4.9v-4.9c0-.1.1-.2.2-.2h1.2z"/></g><g id="XMLID_115_"><path id="XMLID_245_" class="st0" d="M124.8 137.8c0-.2.1-.3.3-.3h1.2c.2 0 .3.1.3.3v1.3c0 .1 0 .2-.1.3l-.7 1.1c0 .1-.1.1-.2.1h-.6c-.1 0-.1-.1-.1-.2l.5-1.1h-.3c-.2 0-.3-.1-.3-.3v-1.2z"/></g><g id="XMLID_112_"><path id="XMLID_241_" class="st0" d="M128.1 130.8c0-1.2.6-1.9 1.9-1.9h1.4c1.2 0 1.9.6 1.9 1.9v6.6c0 1.2-.6 1.9-1.9 1.9H130c-1.2 0-1.9-.6-1.9-1.9v-6.6zm3 6.8c.3 0 .5-.2.5-.5v-6c0-.3-.2-.5-.5-.5h-.7c-.3 0-.5.2-.5.5v6c0 .3.2.5.5.5h.7z"/></g><g id="XMLID_108_"><path id="XMLID_238_" class="st0" d="M140.2 130.2c.1 0 .2.1.2.2v8.6c0 .1-.1.2-.2.2h-1c-.1 0-.2-.1-.2-.2l-2.4-4.9v4.9c0 .1-.1.2-.2.2h-1.2c-.1 0-.2-.1-.2-.2v-8.6c0-.1.1-.2.2-.2h1c.1 0 .2.1.2.2l2.4 4.9v-4.9c0-.1.1-.2.2-.2h1.2z"/></g></g><g id="XMLID_92_"><g id="XMLID_105_"><path id="XMLID_234_" class="st0" d="M21.7 128.9c.2 0 .3.1.3.3v9.8c0 .2-.1.3-.3.3h-1.2c-.2 0-.3-.1-.3-.3v-5.8h-.1l-1.3 5.8c0 .2-.1.2-.3.2H18c-.2 0-.2-.1-.3-.2l-1.3-5.8h-.1v5.8c0 .2-.1.3-.3.3h-1.2c-.2 0-.3-.1-.3-.3v-9.8c0-.2.1-.3.3-.3h1.7c.2 0 .2.1.3.2l1.4 6.4 1.4-6.4c0-.2.1-.2.3-.2h1.8z"/></g><g id="XMLID_103_"><path id="XMLID_231_" class="st0" d="M28.8 131.7c0 .1-.1.2-.2.2h-3.2v2h2.4c.1 0 .2.1.2.2v1.3c0 .1-.1.2-.2.2h-2.4v1.9h3.2c.2 0 .2.1.2.2v1.3c0 .1-.1.2-.2.2h-4.8c-.1 0-.2-.1-.2-.2v-8.6c0-.1.1-.2.2-.2h4.8c.2 0 .2.1.2.2v1.3z"/></g><g id="XMLID_101_"><path id="XMLID_228_" class="st0" d="M35.5 131.7c0 .1-.1.2-.2.2h-3.2v2h2.4c.1 0 .2.1.2.2v1.3c0 .1-.1.2-.2.2h-2.4v1.9h3.2c.2 0 .2.1.2.2v1.3c0 .1-.1.2-.2.2h-4.8c-.1 0-.2-.1-.2-.2v-8.6c0-.1.1-.2.2-.2h4.8c.2 0 .2.1.2.2v1.3z"/></g><g id="XMLID_99_"><path id="XMLID_225_" class="st0" d="M41.6 130.2c.1 0 .2.1.2.2v1.3c0 .1-.1.2-.2.2h-1.5v7.1c0 .1-.1.2-.2.2h-1.3c-.1 0-.2-.1-.2-.2v-7.1h-1.5c-.1 0-.2-.1-.2-.2v-1.3c0-.1.1-.2.2-.2h4.7z"/></g><g id="XMLID_97_"><path id="XMLID_222_" class="st0" d="M51.6 130.2c.1 0 .3.1.3.3v6.9c0 1.2-.6 1.9-1.9 1.9h-1.4c-1.2 0-1.9-.6-1.9-1.9v-6.9c0-.1.1-.3.3-.3h1.2c.1 0 .3.1.3.3v6.6c0 .3.2.5.5.5h.7c.3 0 .5-.2.5-.5v-6.6c0-.1.1-.3.3-.3h1.1z"/></g><g id="XMLID_93_"><path id="XMLID_218_" class="st0" d="M53.5 130.4c0-.1.1-.2.2-.2h3.1c1.2 0 1.9.6 1.9 1.9v2.5c0 1.2-.6 1.8-1.9 1.9h-1.6v2.6c0 .1-.1.2-.2.2h-1.3c-.1 0-.2-.1-.2-.2v-8.7zm3 4.4c.3 0 .5-.2.5-.5v-1.9c0-.3-.2-.5-.5-.5h-1.3v2.9h1.3z"/></g></g><g id="XMLID_38_"><g id="XMLID_90_"><path id="XMLID_214_" class="st1" d="M22.5 108.9c0 .2-.1.3-.3.3h-4.4v3.5h3.3c.2 0 .3.1.3.3v1.8c0 .2-.1.3-.3.3h-3.3v5.6c0 .2-.1.3-.3.3h-1.8c-.2 0-.3-.1-.3-.3v-13.5c0-.2.1-.3.3-.3h6.5c.2 0 .3.1.3.3v1.7z"/></g><g id="XMLID_87_"><path id="XMLID_210_" class="st1" d="M32 113.7c0 1.2-.4 2-1.3 2.3l1.2 4.6c.1.2-.1.3-.2.3h-1.8c-.2 0-.3-.1-.3-.2l-1.2-4.5h-1.2v4.4c0 .2-.1.3-.3.3h-1.8c-.2 0-.3-.1-.3-.3v-13.5c0-.2.1-.3.3-.3h4.4c1.7 0 2.5.9 2.5 2.5v4.4zm-3.1.2c.5 0 .7-.2.7-.7v-3.3c0-.5-.2-.7-.7-.7h-1.7v4.7h1.7z"/></g><g id="XMLID_84_"><path id="XMLID_206_" class="st1" d="M34.3 109.4c0-1.7.9-2.5 2.5-2.5h2c1.7 0 2.5.9 2.5 2.5v9c0 1.7-.9 2.5-2.5 2.5h-2c-1.7 0-2.5-.9-2.5-2.5v-9zm4.1 9.3c.5 0 .7-.2.7-.7v-8.1c0-.5-.2-.7-.7-.7h-1c-.5 0-.7.2-.7.7v8.1c0 .5.2.7.7.7h1z"/></g><g id="XMLID_82_"><path id="XMLID_203_" class="st1" d="M51.2 106.8c.2 0 .3.1.3.3v13.5c0 .2-.1.3-.3.3h-1.7c-.2 0-.3-.1-.3-.2l-2.7-7.5h-.1v7.5c0 .2-.1.3-.3.3h-1.8c-.2 0-.3-.1-.3-.3v-13.5c0-.2.1-.3.3-.3H46c.2 0 .3.1.3.2l2.7 7.5h.1v-7.4c0-.2.1-.3.3-.3h1.8z"/></g><g id="XMLID_80_"><path id="XMLID_200_" class="st1" d="M60.5 106.8c.2 0 .3.1.3.3v1.8c0 .2-.1.3-.3.3h-2v11.5c0 .2-.1.3-.3.3h-1.8c-.2 0-.3-.1-.3-.3v-11.5h-2c-.2 0-.3-.1-.3-.3v-1.8c0-.2.1-.3.3-.3h6.4z"/></g><g id="XMLID_78_"><path id="XMLID_197_" class="st1" d="M63.1 113.8c0-.2.1-.4.4-.4h2.8c.2 0 .4.1.4.4v1.6c0 .2-.1.4-.4.4h-2.8c-.2 0-.4-.1-.4-.4v-1.6z"/></g><g id="XMLID_76_"><path id="XMLID_194_" class="st1" d="M76.3 108.9c0 .2-.1.3-.3.3h-4.4v3.5H75c.2 0 .3.1.3.3v1.7c0 .2-.1.3-.3.3h-3.4v3.6H76c.2 0 .3.1.3.3v1.8c0 .2-.1.3-.3.3h-6.5c-.2 0-.3-.1-.3-.3v-13.5c0-.2.1-.3.3-.3H76c.2 0 .3.1.3.3v1.7z"/></g><g id="XMLID_74_"><path id="XMLID_191_" class="st1" d="M86.1 106.8c.2 0 .3.1.3.3v13.5c0 .2-.1.3-.3.3h-1.7c-.2 0-.3-.1-.3-.2l-2.7-7.5h-.1v7.5c0 .2-.1.3-.3.3h-1.8c-.2 0-.3-.1-.3-.3v-13.5c0-.2.1-.3.3-.3h1.7c.2 0 .3.1.3.2l2.7 7.5h.1v-7.4c0-.2.1-.3.3-.3h1.8z"/></g><g id="XMLID_71_"><path id="XMLID_187_" class="st1" d="M89 107.1c0-.2.1-.3.3-.3h4.2c1.7 0 2.5.9 2.5 2.6v9c0 1.7-.9 2.5-2.5 2.5h-4.2c-.2 0-.3-.1-.3-.3v-13.5zm4.1 11.5c.5 0 .7-.2.7-.7v-8c0-.5-.2-.7-.7-.7h-1.6v9.4h1.6z"/></g><g id="XMLID_66_"><path id="XMLID_183_" class="st1" d="M104 107.1c0-.2.1-.3.3-.3h4.2c1.7 0 2.5.9 2.5 2.6v9c0 1.7-.9 2.5-2.5 2.5h-4.2c-.2 0-.3-.1-.3-.3v-13.5zm4 11.5c.5 0 .7-.2.7-.7v-8c0-.5-.2-.7-.7-.7h-1.6v9.4h1.6z"/></g><g id="XMLID_47_"><path id="XMLID_180_" class="st1" d="M120.7 108.9c0 .2-.1.3-.3.3H116v3.5h3.4c.2 0 .3.1.3.3v1.7c0 .2-.1.3-.3.3H116v3.6h4.4c.2 0 .3.1.3.3v1.8c0 .2-.1.3-.3.3h-6.5c-.2 0-.3-.1-.3-.3v-13.5c0-.2.1-.3.3-.3h6.5c.2 0 .3.1.3.3v1.7z"/></g><g id="XMLID_44_"><path id="XMLID_177_" class="st1" d="M131.1 106.8c.3 0 .4.1.3.4l-3 13.4c-.1.2-.2.3-.4.3h-1.8c-.2 0-.3-.1-.4-.3l-3-13.4c-.1-.2.1-.4.3-.4h1.7c.2 0 .3.1.4.3l1.8 9.4 1.9-9.4c.1-.2.2-.3.4-.3h1.8z"/></g><g id="XMLID_39_"><path id="XMLID_174_" class="st1" d="M137.7 106.8c1.7 0 2.5.9 2.5 2.5v1.9c0 .2-.1.3-.3.3h-1.8c-.2 0-.3-.1-.3-.3v-1.4c0-.5-.2-.7-.7-.7h-.8c-.4 0-.7.2-.7.7v2.4l4.2 1.4c.3.1.5.3.5.7v4.1c0 1.7-.9 2.5-2.5 2.5h-2c-1.6 0-2.5-.9-2.5-2.5v-1.8c0-.2.1-.3.3-.3h1.8c.2 0 .3.1.3.3v1.4c0 .5.3.7.7.7h.8c.5 0 .7-.2.7-.7v-2.3l-4.2-1.4c-.3-.1-.5-.3-.5-.7v-4.2c0-1.7.9-2.5 2.5-2.5h2z"/></g></g><g id="XMLID_35_"><g id="XMLID_36_"><path id="XMLID_169_" class="st1" d="M15 125.2h125.8v.7H15z"/></g></g><g id="XMLID_33_"><g id="XMLID_34_"><path id="XMLID_166_" class="st1" d="M69.8 125.6h.7v14.5h-.7z"/></g></g><g id="XMLID_494_"><g id="XMLID_165_"><path id="XMLID_539_" class="st0" d="M104.9 58.6L100.4 70l-.8 6.2-2.8 22.7H58.7V68.6l-8.2-10 5.1-5.3 3.1-3.2V18.4h39.2v.1l2.5 32.7z"/></g><g id="XMLID_136_" class="st2"><path id="XMLID_537_" class="st3" d="M112.8 56.6c-.4 1.6-1 3.2-1.6 4.7h-.2c-5.6 0-10 4.4-10 10.7v3.1c-.4.4-.9.7-1.3 1.1-1.4 1.1-2.9 2.1-4.4 2.9-1.1.6-2.3 1.2-3.5 1.7-.8.3-1.5.6-2.3.9-.8.3-1.5.5-2.3.8l-2.4.6c-.8.2-1.5.3-2.3.4-1.9.3-3.8.4-5.7.4h-.2c-5.8 0-11.3-1.4-16.2-3.8-.5-.3-1.1-.5-1.6-.8-1.4-.8-2.8-1.7-4.1-2.6V72c0-6.3-4.4-10.7-10-10.7-1.5 0-2.7-1.3-2.7-2.7 0-1.3 1.1-2.6 2.8-2.6 5 0 9.1-3.6 9.8-8.9v-.7c0-.8 0-1.6.1-2.4V22.4c0-2.3 1.7-4 4.1-4H98v.1c1.8.4 3.1 1.9 3.1 3.9v22.9c0 6.3 4.4 10.7 9.9 10.7.7-.1 1.3.2 1.8.6z"/></g><g id="XMLID_663_" class="st4"><path id="XMLID_523_" class="st3" d="M99.9 46.3c0 2.9-.6 5.8-1.6 8.3-2.3 5.9-7 10.5-12.9 12.8-.1.1-.3.1-.4.2-.8.3-1.7.6-2.5.8-1.7.4-3.5.6-5.3.6h-.7c-8.9-.3-16.6-5.7-20-13.4-.3-.7-.6-1.5-.9-2.2-.7-2-1-4.1-1.1-6.3v-.7c0-.8 0-1.6.1-2.4.4-4 1.9-7.7 4.1-10.8.5-.7 1-1.4 1.6-2 4.2-4.6 10.2-7.5 16.9-7.5 7.4 0 13.9 3.5 18.1 9 2.9 3.6 4.6 8.4 4.6 13.6z"/></g><g id="XMLID_133_" class="st5"><circle id="XMLID_4_" class="st3" cx="76.7" cy="46.4" r="13.8"/></g><g id="XMLID_156_"><g id="XMLID_157_"><path id="XMLID_127_" transform="rotate(-60.33 80.39 37.569)" class="st1" d="M76.9 36.4H84v2.3h-7.1z"/></g></g><g id="XMLID_154_"><g id="XMLID_155_"><path id="XMLID_94_" transform="rotate(-68.291 84.72 48.868)" class="st1" d="M83.6 45.3h2.3v7.1h-2.3z"/></g></g><g id="XMLID_152_"><g id="XMLID_153_"><path id="XMLID_65_" transform="rotate(-68.28 68.599 41.543)" class="st1" d="M67.4 38h2.3v7.1h-2.3z"/></g></g><g id="XMLID_150_"><g id="XMLID_151_"><path id="XMLID_62_" transform="rotate(-19.283 73.723 36.665)" class="st1" d="M72.6 33.1h2.3v7.1h-2.3z"/></g></g><g id="XMLID_148_"><g id="XMLID_149_"><path id="XMLID_59_" transform="rotate(-20.223 85.514 42.872)" class="st1" d="M82 41.7h7.1V44H82z"/></g></g><g id="XMLID_158_"><g id="XMLID_162_"><path id="XMLID_51_" class="st1" d="M70.6 93.8H60.3V72c0-6.4-3.2-11.1-8.2-13.4 1.7-.7 3.2-1.7 4.4-3 2.4-2.5 3.9-6.1 3.9-10.3V23.5h10.4c1.7 0 2.7-1.2 2.7-2.6 0-1.5-1.1-2.6-2.9-2.6H58.7c-2.4 0-4.1 1.7-4.1 4v22.9c0 .6 0 1.2-.1 1.8-.7 5.3-4.8 8.9-9.8 8.9-1.7 0-2.8 1.3-2.8 2.6 0 1.4 1.2 2.7 2.7 2.7 5.6 0 10 4.4 10 10.7v22.9c0 2.3 1.7 4 4.1 4h12.2c1.6-.1 2.6-1.3 2.6-2.6s-1.1-2.4-2.9-2.4z"/></g><g id="XMLID_160_"><path id="XMLID_48_" class="st1" d="M112.8 56.6c-.5-.4-1.1-.6-1.9-.6-5.5 0-9.9-4.4-9.9-10.7V22.4c0-1.9-1.2-3.4-3.1-3.9-.3-.1-.6-.1-1-.1H84.8c-1.7.1-2.7 1.2-2.7 2.6 0 1.4 1 2.6 2.7 2.6h10.4v21.7c0 3.7 1.1 6.9 3.1 9.3 1.4 1.7 3.1 3 5.2 3.9-5 2.3-8.2 7.1-8.2 13.5v21.8H85c-1.8 0-2.8 1.1-2.8 2.5s1.1 2.6 2.7 2.6h12c2.4 0 4.2-1.7 4.2-4V72c0-6.3 4.4-10.7 10-10.7h.2c1.5-.1 2.6-1.3 2.6-2.7-.1-.8-.5-1.5-1.1-2z"/></g></g><g id="XMLID_134_"><path id="XMLID_5_" class="st3" d="M83.2 60.9h-6.5c-.2 0-.3.1-.3.3v13.5c0 .2.1.3.3.3h1.8c.2 0 .3-.1.3-.3V69h3.3c.2 0 .3-.1.3-.3V67c0-.2-.1-.3-.3-.3h-3.3v-3.5h4.4c.2 0 .3-.1.3-.3v-1.8c0-.1-.1-.2-.3-.2z"/><path id="XMLID_6_" class="st3" d="M88.1 67.4h-2.8c-.2 0-.3.1-.3.2s-.1.1-.1.2v1.6c0 .2.1.4.4.4h2.8c.2 0 .4-.1.4-.4v-1.6c-.1-.2-.2-.4-.4-.4z"/><path id="XMLID_7_" class="st3" d="M83.2 79.4c.2 0 .3-.1.3-.3v-1.8c0-.2-.1-.3-.3-.3h-6.5c-.2 0-.3.1-.3.3v13.5c0 .2.1.3.3.3h6.5c.2 0 .3-.1.3-.3V89c0-.2-.1-.3-.3-.3h-4.4v-3.6h3.4c.2 0 .3-.1.3-.3v-1.7c0-.2-.1-.3-.3-.3h-3.4v-3.5h4.4z"/><path id="XMLID_8_" class="st3" d="M89.3 77H85c-.2 0-.3.1-.3.3v13.5c0 .2.1.3.3.3h4.2c1.7 0 2.5-.9 2.5-2.5v-9c.1-1.7-.8-2.6-2.4-2.6zm.2 11.1c0 .5-.2.7-.7.7h-1.6v-9.4h1.6c.5 0 .7.2.7.7v8z"/></g><g id="XMLID_164_"><path id="XMLID_24_" class="st3" d="M72.3 59.6l-5.2-1L76 42.9l3.9 1z"/></g><g id="XMLID_137_"><defs><path id="XMLID_22_" d="M57.6 24.8H107v69.6H57.6z"/></defs><clipPath id="XMLID_2_"><use xlink:href="#XMLID_22_" overflow="visible"/></clipPath><g id="XMLID_139_" class="st7"><g id="XMLID_140_"><path id="XMLID_17_" class="st1" d="M78.1 42.6c-1.8-.9-3.5-1.1-3.9-.4L49.7 90.7c-.1.2-.1.4 0 .6.2.7 1.2 1.6 2.6 2.3 1.8.9 3.5 1.1 3.9.4l24.6-48.4c.2-.7-.9-2-2.7-3zm.1 3.8L75.4 52l-.6 1.1-2.6 5.2-3.2-1.7 2.8-5.5 3.3-6.4c.2-.4 1.1-.3 1.9.2.8.5 1.4 1.1 1.2 1.5z"/></g></g></g></g></g></svg>