<?xml version="1.0" encoding="utf-8"?>
<!-- Generator: Adobe Illustrator 21.1.0, SVG Export Plug-In . SVG Version: 6.00 Build 0)  -->
<svg version="1.1" id="Layer_1" xmlns="http://www.w3.org/2000/svg" xmlns:xlink="http://www.w3.org/1999/xlink" x="0px" y="0px"
	 viewBox="0 0 341.6 105.3" style="enable-background:new 0 0 341.6 105.3;" xml:space="preserve">
<style type="text/css">
	.st0{fill:#2676B7;}
</style>
<path class="st0" d="M46,61.6H29.9v-1.8c0.5,0,1.1-0.1,2-0.2c0.9-0.1,1.5-0.2,1.8-0.3c0.6-0.2,1-0.5,1.2-0.9
	c0.3-0.4,0.4-0.9,0.4-1.6V31.1c0-0.6-0.1-1.1-0.3-1.5s-0.6-0.7-1.3-1c-0.5-0.2-1.1-0.4-1.9-0.6c-0.8-0.2-1.4-0.3-1.9-0.3v-1.8H46
	v1.8c-0.5,0-1.1,0.1-1.9,0.2c-0.7,0.1-1.3,0.2-1.9,0.4c-0.6,0.2-1.1,0.5-1.3,1s-0.3,1-0.3,1.5v25.8c0,0.6,0.1,1,0.4,1.5
	c0.2,0.4,0.7,0.8,1.2,1c0.4,0.1,0.9,0.3,1.7,0.4c0.8,0.2,1.5,0.2,2,0.3L46,61.6L46,61.6z"/>
<path class="st0" d="M84.8,34c-0.4,0-1,0.1-1.8,0.3s-1.4,0.4-1.7,0.6c-0.5,0.3-0.8,1-1,2S80,39.1,80,40.6v21.3h-1.8L60.7,38.1v15
	c0,1.7,0.1,3,0.3,3.9s0.5,1.5,1,1.9c0.3,0.3,1,0.6,1.9,0.8c1,0.3,1.6,0.4,1.9,0.4v1.5H54v-1.5c0.4,0,1-0.2,1.9-0.4s1.4-0.5,1.6-0.6
	c0.5-0.4,0.8-1,1-1.8s0.3-2.1,0.3-4V39c0-0.6-0.1-1.3-0.3-1.9c-0.2-0.6-0.5-1.1-0.9-1.5c-0.5-0.5-1.2-0.8-2-1.2
	c-0.8-0.3-1.5-0.5-2-0.5v-1.5h8.3l16.3,22.1V40.9c0-1.7-0.1-3-0.3-3.9c-0.2-0.9-0.5-1.5-0.9-1.8s-1-0.5-1.9-0.8
	c-0.9-0.2-1.5-0.4-2-0.4v-1.5h11.8L84.8,34L84.8,34z"/>
<path class="st0" d="M145.5,36c1.3,1.3,2.3,3,3,4.8c0.7,1.9,1.1,4,1.1,6.3s-0.4,4.4-1.1,6.3c-0.7,1.9-1.8,3.5-3.1,4.8
	s-2.7,2.3-4.4,3s-3.5,1.1-5.4,1.1c-2,0-3.9-0.4-5.6-1.1c-1.7-0.8-3.2-1.8-4.4-3.2c-1.2-1.3-2.2-2.9-2.9-4.8
	c-0.7-1.9-1.1-3.9-1.1-6.1c0-2.4,0.4-4.5,1.1-6.3s1.7-3.4,3-4.8c1.3-1.3,2.8-2.4,4.5-3.1c1.7-0.7,3.5-1.1,5.3-1.1
	c1.9,0,3.7,0.4,5.4,1.1C142.8,33.7,144.3,34.7,145.5,36z M142.5,56.6c0.8-1.2,1.3-2.6,1.7-4.2c0.3-1.6,0.5-3.3,0.5-5.3
	s-0.2-3.8-0.6-5.5c-0.4-1.7-1-3.1-1.7-4.3c-0.8-1.2-1.7-2.1-2.8-2.7c-1.1-0.6-2.4-1-3.9-1c-1.6,0-3,0.4-4.2,1.1
	c-1.1,0.8-2.1,1.8-2.8,3s-1.2,2.6-1.5,4.2c-0.3,1.6-0.5,3.3-0.5,5.1c0,2,0.2,3.7,0.5,5.3c0.4,1.6,0.9,3,1.7,4.2
	c0.7,1.2,1.7,2.1,2.8,2.8s2.5,1,4,1s2.8-0.3,3.9-1C140.8,58.8,141.8,57.8,142.5,56.6z"/>
<path class="st0" d="M241.7,53.1c-0.2,0.6-0.6,1.6-1.3,2.9c-0.7,1.3-1.3,2.3-2,3c-0.2,0.2-0.6,0.4-1.2,0.6c-0.6,0.1-1.1,0.2-1.6,0.3
	s-1.1,0.1-1.9,0.1c-0.7,0-1.3,0-1.8,0c-1.1,0-2,0-2.6-0.1s-1.1-0.2-1.5-0.5s-0.6-0.6-0.7-1.1c-0.1-0.5-0.2-1.2-0.2-2.1v-8.7h3.3
	c0.9,0,1.6,0.1,2.1,0.2c0.5,0.2,1,0.5,1.4,1c0.3,0.3,0.5,0.9,0.7,1.6c0.2,0.7,0.4,1.4,0.4,2.1h1.5V41h-1.5c-0.1,0.6-0.2,1.2-0.4,1.9
	s-0.5,1.2-0.8,1.6c-0.4,0.5-0.8,0.8-1.3,1s-1.3,0.3-2.3,0.3h-3V34.2h0.4h0.2h5.6c0.6,0,1.2,0,1.9,0s3.1,0.3,4.7,2.6
	c0.4,0.6,1.5,2.6,1.5,2.6h1.6l-0.5-6.9h-10.3H227h-8.5V34c0.4,0,0.9,0.1,1.5,0.2c0.6,0.1,1.1,0.3,1.5,0.5c0.5,0.2,0.8,0.5,0.9,0.9
	c0.2,0.3,0.2,0.7,0.2,1.2v20.9c0,0.5-0.1,0.9-0.3,1.2s-0.5,0.6-0.9,0.8c-0.2,0.1-0.6,0.2-1.3,0.3s-1.2,0.1-1.6,0.2v1.5h24.1l0.6-8.6
	C243.2,53.1,241.7,53.1,241.7,53.1z"/>
<path class="st0" d="M263.3,62.3c-1.7,0-3.4-0.3-5-1s-3-1.7-4.2-2.9c-1.2-1.3-2.2-2.8-2.9-4.7s-1.1-3.9-1.1-6.3
	c0-2.3,0.4-4.4,1.1-6.3c0.7-1.9,1.7-3.5,2.9-4.9s2.7-2.4,4.4-3.1c1.7-0.7,3.5-1.1,5.4-1.1c1.4,0,2.7,0.2,3.9,0.5
	c1.2,0.4,2.3,0.9,3.3,1.5l0.8-1.4h1.6l0.2,10.4H272c-0.2-1-0.5-2.1-1-3.3c-0.4-1.2-0.9-2.2-1.5-3c-0.7-0.9-1.4-1.7-2.3-2.2
	s-1.9-0.8-3.1-0.8c-1.3,0-2.6,0.3-3.7,0.9c-1.1,0.6-2.1,1.5-3,2.6c-0.8,1.1-1.4,2.5-1.9,4.2c-0.4,1.7-0.7,3.6-0.7,5.7
	c0,1.9,0.2,3.6,0.7,5.1s1.1,2.9,2,4.1c0.9,1.2,1.9,2.1,3.1,2.7c1.2,0.7,2.5,1,4,1c1.1,0,2.1-0.2,3-0.5c0.9-0.4,1.7-0.8,2.4-1.4
	c0.7-0.6,1.3-1.3,1.8-2c0.5-0.8,0.9-1.6,1.3-2.5l1.5,0.7c-1.2,2.9-2.7,4.9-4.7,6.2C268.3,61.7,266,62.3,263.3,62.3z"/>
<path class="st0" d="M312,61.6h-12.1v-1.5c0.3,0,0.8-0.1,1.4-0.1c0.6-0.1,1-0.1,1.3-0.2c0.4-0.2,0.7-0.4,0.9-0.7
	c0.2-0.3,0.3-0.8,0.3-1.3V47.4h-13.7v10.1c0,0.5,0.1,0.9,0.2,1.2c0.2,0.3,0.5,0.6,0.9,0.9c0.2,0.1,0.6,0.2,1.2,0.4
	c0.6,0.1,1.1,0.2,1.4,0.2v1.5h-12.1v-1.5c0.3,0,0.8-0.1,1.4-0.1c0.6-0.1,1-0.1,1.3-0.2c0.4-0.2,0.7-0.4,0.9-0.7
	c0.2-0.3,0.3-0.8,0.3-1.3v-21c0-0.4-0.1-0.8-0.3-1.2c-0.2-0.4-0.5-0.6-0.9-0.9c-0.4-0.2-0.8-0.3-1.3-0.5c-0.5-0.1-1-0.2-1.4-0.2
	v-1.5H294V34c-0.4,0-0.8,0.1-1.4,0.2c-0.6,0.1-1,0.2-1.2,0.3c-0.5,0.2-0.8,0.4-0.9,0.8c-0.2,0.4-0.2,0.8-0.2,1.2v9H304v-8.8
	c0-0.4-0.1-0.8-0.3-1.2c-0.2-0.4-0.5-0.6-0.9-0.9c-0.4-0.2-0.8-0.3-1.3-0.5c-0.5-0.1-1-0.2-1.4-0.2v-1.5H312V34
	c-0.4,0-0.8,0.1-1.4,0.2c-0.6,0.1-1,0.2-1.2,0.3c-0.5,0.2-0.8,0.4-0.9,0.8c-0.2,0.4-0.2,0.8-0.2,1.2v20.9c0,0.5,0.1,0.9,0.2,1.2
	c0.2,0.3,0.5,0.6,0.9,0.9c0.2,0.1,0.6,0.2,1.2,0.4c0.6,0.1,1.1,0.2,1.4,0.2V61.6z"/>
<path class="st0" d="M115.7,32.6h-5.2h-10h-8.7V34c0.4,0,0.9,0.1,1.5,0.2c0.6,0.1,1.1,0.3,1.5,0.5c0.5,0.2,0.8,0.5,0.9,0.9
	c0.2,0.3,0.2,0.7,0.2,1.2v21c0,0.5-0.1,0.9-0.3,1.3c-0.2,0.3-0.5,0.6-0.9,0.8c-0.2,0.1-0.6,0.2-1.3,0.2c-0.7,0.1-1.2,0.1-1.6,0.1
	v1.5h12.6v-1.5c-0.4,0-0.9-0.1-1.6-0.2c-0.7-0.1-1.1-0.3-1.3-0.3c-0.4-0.2-0.8-0.5-0.9-0.9c-0.2-0.4-0.3-0.8-0.3-1.2v-10h3.3
	c0.9,0,1.6,0.1,2.2,0.3s1.1,0.5,1.5,1c0.3,0.3,0.5,0.9,0.8,1.7c0.2,0.8,0.4,1.4,0.4,2h1.6V41.1h-1.6c-0.1,0.7-0.2,1.4-0.4,2
	c-0.2,0.6-0.5,1.1-0.7,1.4c-0.4,0.4-0.9,0.8-1.4,1c-0.6,0.2-1.3,0.3-2.4,0.3h-3.3V34.2h0.6h0.2h5.5c0.6,0,1.2,0,1.8,0
	c0.7,0,3.1,0.3,4.6,2.6c0.4,0.6,1.5,2.5,1.5,2.5h1.6L115.7,32.6z"/>
<path class="st0" d="M211.8,25.9H200h-6.4h-11.8l-0.5,8.1h1.9c0,0,1.3-2.3,1.8-3c1.9-2.7,4.7-3,5.5-3.1c0.2,0,0.4,0,0.6,0
	c2.8,0,1.6,0,1.6,0h0.1h1.5v28.5c0,0.6-0.1,1.1-0.3,1.5c-0.2,0.5-0.6,0.8-1.2,1.1c-0.3,0.1-0.9,0.3-1.9,0.5s-1.7,0.3-2.2,0.3v1.8
	h7.1h2.7h7.1v-1.8c-0.5,0-1.3-0.1-2.2-0.3c-1-0.2-1.6-0.4-1.9-0.5c-0.6-0.3-1-0.6-1.2-1.1s-0.4-1-0.4-1.5V27.9h1.5h0.1
	c-0.1,0-1.2,0,1.6,0c0.2,0,0.4,0,0.6,0c0.8,0,3.7,0.4,5.5,3.1c0.5,0.7,1.8,3,1.8,3h1.9L211.8,25.9z"/>
<g>
	<g>
		<path class="st0" d="M29.9,72.6h4.3c0.4,0,0.8,0,1.1,0.1s0.6,0.2,0.9,0.4c0.3,0.2,0.5,0.5,0.6,0.8C37,74.2,37,74.6,37,75
			c0,0.6-0.2,1.1-0.5,1.6c-0.3,0.4-0.8,0.7-1.4,0.8l0,0c0.3,0,0.6,0.1,0.8,0.2s0.4,0.3,0.5,0.5s0.2,0.4,0.3,0.6s0.1,0.5,0.1,0.8
			c0,0.2,0,0.4,0,0.6s0,0.5,0.1,0.7c0,0.2,0.1,0.5,0.1,0.7c0.1,0.2,0.1,0.4,0.2,0.5h-1c-0.1-0.1-0.1-0.2-0.1-0.3
			c0-0.1-0.1-0.3-0.1-0.4s0-0.3,0-0.4s0-0.2,0-0.3c0-0.3,0-0.7-0.1-1c0-0.3-0.1-0.6-0.3-0.9c-0.1-0.3-0.3-0.5-0.6-0.6
			c-0.2-0.2-0.6-0.2-1-0.2h-3.4V82h-0.9v-9.4H29.9z M30.8,77h3.3c0.3,0,0.5,0,0.8-0.1c0.2-0.1,0.5-0.2,0.6-0.4
			c0.2-0.2,0.3-0.3,0.4-0.6c0.1-0.2,0.2-0.5,0.2-0.8c0-0.6-0.2-1-0.5-1.4c-0.3-0.3-0.8-0.5-1.5-0.5h-3.3V77z"/>
		<path class="st0" d="M37.9,82.2h-1.7l-0.1-0.1C36,82,36,81.9,36,81.7c0-0.1-0.1-0.3-0.1-0.4s0-0.3,0-0.4s0-0.2,0-0.3
			c0-0.3,0-0.7-0.1-1c0-0.3-0.1-0.6-0.2-0.8c-0.1-0.2-0.3-0.4-0.5-0.5s-0.5-0.2-0.8-0.2h-3.2v4.2h-1.4v-9.9h4.6
			c0.4,0,0.8,0.1,1.2,0.2s0.7,0.3,1,0.5s0.5,0.5,0.7,0.9c0.2,0.3,0.3,0.8,0.3,1.2c0,0.6-0.2,1.2-0.5,1.7c-0.2,0.3-0.5,0.5-0.8,0.7
			c0,0,0.1,0,0.1,0.1c0.2,0.1,0.4,0.3,0.6,0.5c0.1,0.2,0.3,0.5,0.3,0.7c0.1,0.3,0.1,0.5,0.1,0.8c0,0.2,0,0.4,0,0.6s0,0.4,0.1,0.7
			c0,0.2,0.1,0.4,0.1,0.6s0.1,0.3,0.2,0.4L37.9,82.2z M36.5,81.7h0.4c0-0.1,0-0.1-0.1-0.2c-0.1-0.2-0.1-0.5-0.1-0.7s0-0.5-0.1-0.7
			c0-0.2,0-0.4,0-0.6c0-0.3-0.1-0.5-0.1-0.7s-0.1-0.4-0.2-0.6c-0.1-0.2-0.2-0.3-0.4-0.4s-0.4-0.2-0.7-0.2h-0.1
			c0.1,0,0.2,0.1,0.2,0.1c0.3,0.2,0.5,0.4,0.6,0.7c0.1,0.3,0.2,0.6,0.3,1c0,0.3,0.1,0.7,0.1,1c0,0.1,0,0.2,0,0.3c0,0.1,0,0.2,0,0.4
			c0,0.1,0,0.2,0.1,0.4C36.5,81.6,36.5,81.7,36.5,81.7z M30.2,81.7h0.4v-4.2h3.6c0.3,0,0.6,0,0.8,0.1v-0.4l0.2-0.1
			c0.5-0.1,0.9-0.4,1.2-0.7c0.3-0.4,0.4-0.9,0.4-1.4c0-0.4-0.1-0.7-0.2-1c-0.1-0.3-0.3-0.5-0.5-0.7s-0.5-0.3-0.8-0.4s-0.7-0.1-1-0.1
			h-4.1C30.2,72.8,30.2,81.7,30.2,81.7z M34.1,77.3h-3.6v-4.2h3.6c0.7,0,1.3,0.2,1.7,0.6s0.6,0.9,0.6,1.5c0,0.3-0.1,0.6-0.2,0.9
			c-0.1,0.3-0.3,0.5-0.5,0.7s-0.5,0.3-0.7,0.4C34.7,77.2,34.4,77.3,34.1,77.3z M31.1,76.8h3.1c0.2,0,0.5,0,0.7-0.1s0.4-0.2,0.6-0.3
			c0.2-0.1,0.3-0.3,0.4-0.5c0.1-0.2,0.1-0.4,0.1-0.7c0-0.5-0.1-0.9-0.4-1.2c-0.3-0.3-0.7-0.4-1.3-0.4h-3.1L31.1,76.8L31.1,76.8z"/>
	</g>
	<g>
		<path class="st0" d="M51.4,72.6h6.5v0.8h-5.6v3.4h5.2v0.8h-5.2v3.7H58V82h-6.6V72.6z"/>
		<path class="st0" d="M58.2,82.2h-7.1v-9.9h7v1.3h-5.6v2.9h5.2v1.3h-5.2V81h5.7C58.2,81,58.2,82.2,58.2,82.2z M51.7,81.7h6.1v-0.3
			h-5.7v-4.2h5.2V77h-5.2v-3.9h5.6v-0.3h-6C51.7,72.8,51.7,81.7,51.7,81.7z"/>
	</g>
	<g>
		<path class="st0" d="M72.4,78.9c0,0.5,0.1,0.9,0.2,1.2c0.2,0.3,0.4,0.6,0.7,0.8c0.3,0.2,0.6,0.3,1,0.4s0.8,0.1,1.2,0.1
			c0.2,0,0.5,0,0.8-0.1s0.6-0.2,0.8-0.3c0.3-0.2,0.5-0.4,0.6-0.6c0.2-0.2,0.3-0.5,0.3-0.9c0-0.3-0.1-0.5-0.2-0.7s-0.3-0.4-0.5-0.5
			s-0.4-0.2-0.6-0.3c-0.2-0.1-0.5-0.2-0.7-0.2l-2-0.5c-0.3-0.1-0.5-0.2-0.8-0.3c-0.3-0.1-0.5-0.2-0.7-0.4c-0.2-0.2-0.3-0.4-0.5-0.6
			c-0.1-0.3-0.2-0.6-0.2-0.9c0-0.2,0-0.5,0.1-0.8s0.3-0.6,0.5-0.9s0.6-0.5,1-0.7s1-0.3,1.6-0.3c0.5,0,0.9,0.1,1.3,0.2
			s0.8,0.3,1.1,0.6c0.3,0.2,0.6,0.6,0.8,0.9c0.2,0.4,0.3,0.8,0.3,1.3h-0.9c0-0.4-0.1-0.7-0.2-0.9c-0.1-0.3-0.3-0.5-0.6-0.7
			c-0.2-0.2-0.5-0.3-0.8-0.4s-0.6-0.1-1-0.1c-0.3,0-0.6,0-0.9,0.1s-0.5,0.2-0.7,0.3c-0.2,0.1-0.4,0.3-0.5,0.6
			c-0.1,0.2-0.2,0.5-0.2,0.9c0,0.2,0,0.4,0.1,0.6s0.2,0.3,0.3,0.4c0.1,0.1,0.3,0.2,0.5,0.3c0.2,0.1,0.4,0.1,0.5,0.2l2.3,0.6
			c0.3,0.1,0.6,0.2,0.9,0.3c0.3,0.1,0.6,0.3,0.8,0.5c0.2,0.2,0.4,0.4,0.5,0.7c0.1,0.3,0.2,0.6,0.2,1c0,0.1,0,0.2,0,0.4
			c0,0.2-0.1,0.4-0.2,0.6s-0.2,0.4-0.4,0.6c-0.2,0.2-0.4,0.4-0.6,0.6c-0.3,0.2-0.6,0.3-1,0.4s-0.9,0.2-1.4,0.2
			c-0.6,0-1.1-0.1-1.5-0.2c-0.5-0.1-0.9-0.3-1.2-0.6c-0.3-0.3-0.6-0.6-0.8-1c-0.2-0.4-0.3-0.9-0.2-1.5h0.9V78.9z"/>
		<path class="st0" d="M75.3,82.4c-0.6,0-1.1-0.1-1.6-0.2s-0.9-0.4-1.3-0.6c-0.4-0.3-0.6-0.7-0.8-1.1c-0.2-0.4-0.3-1-0.2-1.6v-0.2
			h1.4V79c0,0.4,0.1,0.8,0.2,1.1c0.1,0.3,0.3,0.5,0.6,0.7c0.2,0.2,0.5,0.3,0.9,0.4c0.5,0.1,1.1,0.2,1.9,0c0.3-0.1,0.5-0.2,0.7-0.3
			c0.2-0.1,0.4-0.3,0.5-0.5s0.2-0.4,0.2-0.7c0-0.2,0-0.4-0.1-0.6s-0.2-0.3-0.4-0.4c-0.2-0.1-0.4-0.2-0.6-0.3
			c-0.2-0.1-0.4-0.1-0.6-0.2L74,77.7c-0.3-0.1-0.6-0.2-0.8-0.3c-0.3-0.1-0.5-0.3-0.7-0.5s-0.4-0.4-0.5-0.7c-0.1-0.3-0.2-0.6-0.2-1
			c0-0.3,0-0.5,0.1-0.9c0.1-0.3,0.3-0.7,0.5-1c0.3-0.3,0.6-0.6,1.1-0.8c0.5-0.2,1-0.3,1.7-0.3c0.5,0,1,0.1,1.4,0.2s0.8,0.3,1.2,0.6
			c0.3,0.3,0.6,0.6,0.8,1c0.2,0.4,0.3,0.9,0.3,1.4v0.2h-1.4v-0.2c0-0.3-0.1-0.6-0.2-0.8c-0.1-0.2-0.3-0.4-0.5-0.6s-0.5-0.3-0.7-0.4
			c-0.5-0.2-1.2-0.2-1.7,0c-0.3,0.1-0.5,0.2-0.7,0.3c-0.2,0.1-0.3,0.3-0.4,0.5C73,74.5,73,74.7,73,75c0,0.2,0,0.3,0.1,0.5
			c0.1,0.1,0.1,0.2,0.2,0.3c0.1,0.1,0.2,0.2,0.4,0.2c0.2,0.1,0.3,0.1,0.5,0.2l2.3,0.6c0.3,0.1,0.7,0.2,1,0.3
			c0.3,0.1,0.6,0.3,0.8,0.5c0.2,0.2,0.4,0.5,0.6,0.8c0.1,0.3,0.2,0.7,0.2,1.1c0,0.1,0,0.3,0,0.5s-0.1,0.4-0.2,0.6s-0.2,0.4-0.4,0.7
			c-0.2,0.2-0.4,0.4-0.7,0.6c-0.3,0.2-0.6,0.3-1.1,0.4C76.4,82.4,75.9,82.4,75.3,82.4z M71.8,79.1c0,0.4,0.1,0.8,0.2,1.1
			c0.2,0.4,0.4,0.7,0.7,0.9c0.3,0.2,0.7,0.4,1.1,0.5c0.9,0.2,2.1,0.2,2.8,0c0.4-0.1,0.7-0.2,0.9-0.4c0.2-0.1,0.4-0.3,0.6-0.5
			c0.1-0.2,0.2-0.4,0.3-0.5c0.1-0.2,0.1-0.3,0.1-0.5s0-0.3,0-0.4c0-0.3-0.1-0.6-0.2-0.9c-0.1-0.2-0.3-0.4-0.5-0.6s-0.4-0.3-0.7-0.4
			c-0.3-0.1-0.6-0.2-0.9-0.3l-2.3-0.6c-0.2,0-0.4-0.1-0.6-0.2s-0.4-0.2-0.5-0.3c-0.2-0.1-0.3-0.3-0.4-0.5s-0.1-0.4-0.1-0.7
			c0-0.4,0.1-0.7,0.2-1c0.2-0.3,0.4-0.5,0.6-0.7s0.5-0.3,0.8-0.4c0.6-0.1,1.4-0.1,2,0c0.3,0.1,0.6,0.3,0.9,0.4
			c0.3,0.2,0.5,0.5,0.6,0.8c0.1,0.2,0.2,0.5,0.2,0.8H78c0-0.3-0.1-0.6-0.2-0.9c-0.2-0.3-0.4-0.6-0.7-0.8c-0.3-0.2-0.6-0.4-1-0.5
			s-0.8-0.2-1.3-0.2c-0.6,0-1.1,0.1-1.5,0.3c-0.4,0.2-0.7,0.4-0.9,0.6C72.2,73.4,72,73.7,72,74c-0.1,0.3-0.1,0.5-0.1,0.7
			c0,0.3,0.1,0.6,0.2,0.8c0.1,0.2,0.2,0.4,0.4,0.6c0.2,0.2,0.4,0.3,0.6,0.4s0.5,0.2,0.8,0.3l2.1,0.5c0.2,0.1,0.5,0.1,0.7,0.2
			s0.5,0.2,0.7,0.4c0.2,0.1,0.4,0.3,0.5,0.6c0.1,0.2,0.2,0.5,0.2,0.8c0,0.4-0.1,0.7-0.3,1c-0.2,0.3-0.4,0.5-0.7,0.7
			c-0.3,0.2-0.6,0.3-0.9,0.4c-0.8,0.2-1.5,0.1-2.1,0c-0.4-0.1-0.8-0.2-1.1-0.5c-0.3-0.2-0.6-0.5-0.7-0.9c-0.1-0.3-0.2-0.7-0.2-1.1
			h-0.3V79.1z"/>
	</g>
	<g>
		<path class="st0" d="M93.1,72.6h6.5v0.8H94v3.4h5.2v0.8H94v3.7h5.7V82h-6.6V72.6z"/>
		<path class="st0" d="M99.9,82.2h-7.1v-9.9h7v1.3h-5.6v2.9h5.2v1.3h-5.2V81h5.7V82.2z M93.3,81.7h6.1v-0.3h-5.7v-4.2h5.2V77h-5.2
			v-3.9h5.6v-0.3h-6V81.7z"/>
	</g>
	<g>
		<path class="st0" d="M116.4,72.6h1l3.7,9.4h-1l-1.1-2.9h-4.3l-1.1,2.9h-1L116.4,72.6z M115,78.3h3.7l-1.8-4.8L115,78.3z"/>
		<path class="st0" d="M121.4,82.2h-1.5l-1.1-2.9h-3.9l-1.1,2.9h-1.5l4-9.9h1.3L121.4,82.2z M120.3,81.7h0.4l-3.5-8.9h-0.3l2.2,5.7
			h-4.4l2.2-5.7h-0.3l-3.6,8.9h0.4l1.1-2.9h4.6L120.3,81.7z M115.3,78h3l-1.5-3.9L115.3,78z"/>
	</g>
	<g>
		<path class="st0" d="M134.7,72.6h4.3c0.4,0,0.8,0,1.1,0.1s0.6,0.2,0.9,0.4c0.3,0.2,0.5,0.5,0.6,0.8c0.2,0.3,0.2,0.7,0.2,1.1
			c0,0.6-0.2,1.1-0.5,1.6c-0.3,0.4-0.8,0.7-1.4,0.8l0,0c0.3,0,0.6,0.1,0.8,0.2s0.4,0.3,0.5,0.5s0.2,0.4,0.3,0.6s0.1,0.5,0.1,0.8
			c0,0.2,0,0.4,0,0.6s0,0.5,0.1,0.7c0,0.2,0.1,0.5,0.1,0.7c0.1,0.2,0.1,0.4,0.2,0.5h-1c-0.1-0.1-0.1-0.2-0.1-0.3
			c0-0.1-0.1-0.3-0.1-0.4s0-0.3,0-0.4s0-0.2,0-0.3c0-0.3,0-0.7-0.1-1c0-0.3-0.1-0.6-0.3-0.9c-0.1-0.3-0.3-0.5-0.6-0.6
			c-0.2-0.2-0.6-0.2-1-0.2h-3.4V82h-0.9v-9.4H134.7z M135.6,77h3.3c0.3,0,0.5,0,0.8-0.1c0.2-0.1,0.5-0.2,0.6-0.4
			c0.2-0.2,0.3-0.3,0.4-0.6c0.1-0.2,0.2-0.5,0.2-0.8c0-0.6-0.2-1-0.5-1.4c-0.3-0.3-0.8-0.5-1.5-0.5h-3.3V77z"/>
		<path class="st0" d="M142.6,82.2H141l-0.1-0.1c-0.1-0.1-0.1-0.2-0.2-0.4c0-0.1-0.1-0.3-0.1-0.4s0-0.3,0-0.4s0-0.2,0-0.3
			c0-0.3,0-0.7-0.1-1c0-0.3-0.1-0.6-0.2-0.8c-0.1-0.2-0.3-0.4-0.5-0.5s-0.5-0.2-0.8-0.2h-3.2v4.2h-1.4v-9.9h4.6
			c0.4,0,0.8,0.1,1.2,0.2s0.7,0.3,1,0.5s0.5,0.5,0.7,0.9c0.2,0.3,0.3,0.8,0.3,1.2c0,0.6-0.2,1.2-0.5,1.7c-0.2,0.3-0.5,0.5-0.8,0.7
			c0,0,0.1,0,0.1,0.1c0.2,0.1,0.4,0.3,0.6,0.5c0.1,0.2,0.3,0.5,0.3,0.7c0.1,0.3,0.1,0.5,0.1,0.8c0,0.2,0,0.4,0,0.6s0,0.4,0.1,0.7
			c0,0.2,0.1,0.4,0.1,0.6s0.1,0.3,0.2,0.4L142.6,82.2z M141.3,81.7h0.4c0-0.1,0-0.1-0.1-0.2c-0.1-0.2-0.1-0.5-0.1-0.7s0-0.5-0.1-0.7
			c0-0.2,0-0.4,0-0.6c0-0.3-0.1-0.5-0.1-0.7s-0.1-0.4-0.2-0.6c-0.1-0.2-0.2-0.3-0.4-0.4s-0.4-0.2-0.7-0.2h-0.1
			c0.1,0,0.2,0.1,0.2,0.1c0.3,0.2,0.5,0.4,0.6,0.7c0.1,0.3,0.2,0.6,0.3,1c0,0.3,0.1,0.7,0.1,1c0,0.1,0,0.2,0,0.3c0,0.1,0,0.2,0,0.4
			c0,0.1,0,0.2,0.1,0.4C141.2,81.6,141.2,81.7,141.3,81.7z M134.9,81.7h0.4v-4.2h3.6c0.3,0,0.6,0,0.8,0.1v-0.4l0.2-0.1
			c0.5-0.1,0.9-0.4,1.2-0.7c0.3-0.4,0.4-0.9,0.4-1.4c0-0.4-0.1-0.7-0.2-1s-0.3-0.5-0.5-0.7s-0.5-0.3-0.8-0.4s-0.7-0.1-1-0.1h-4.1
			L134.9,81.7L134.9,81.7z M138.9,77.3h-3.6v-4.2h3.6c0.7,0,1.3,0.2,1.7,0.6s0.6,0.9,0.6,1.5c0,0.3-0.1,0.6-0.2,0.9
			c-0.1,0.3-0.3,0.5-0.5,0.7s-0.5,0.3-0.7,0.4C139.5,77.2,139.2,77.3,138.9,77.3z M135.8,76.8h3.1c0.2,0,0.5,0,0.7-0.1
			s0.4-0.2,0.6-0.3c0.2-0.1,0.3-0.3,0.4-0.5c0.1-0.2,0.1-0.4,0.1-0.7c0-0.5-0.1-0.9-0.4-1.2c-0.3-0.3-0.7-0.4-1.3-0.4h-3.1v3.2
			H135.8z"/>
	</g>
	<g>
		<path class="st0" d="M163.1,75.4c-0.1-0.4-0.2-0.7-0.4-1s-0.4-0.5-0.7-0.7s-0.5-0.3-0.9-0.4c-0.3-0.1-0.6-0.2-1-0.2
			c-0.6,0-1.2,0.1-1.6,0.4c-0.4,0.2-0.8,0.6-1.1,0.9c-0.3,0.4-0.5,0.8-0.6,1.3s-0.2,1-0.2,1.5s0.1,1,0.2,1.5
			c0.1,0.5,0.3,0.9,0.6,1.3s0.7,0.7,1.1,0.9c0.4,0.2,1,0.4,1.6,0.4c0.4,0,0.8-0.1,1.2-0.2c0.4-0.2,0.7-0.4,0.9-0.6
			c0.3-0.3,0.5-0.6,0.6-1c0.2-0.4,0.3-0.8,0.3-1.2h0.9c-0.1,0.6-0.2,1.1-0.4,1.6s-0.5,0.9-0.8,1.2c-0.3,0.3-0.7,0.6-1.2,0.8
			c-0.5,0.2-1,0.3-1.5,0.3c-0.7,0-1.4-0.1-1.9-0.4c-0.6-0.3-1-0.6-1.4-1.1s-0.6-1-0.8-1.6s-0.3-1.2-0.3-1.8c0-0.6,0.1-1.3,0.3-1.8
			c0.2-0.6,0.5-1.1,0.8-1.6c0.4-0.5,0.8-0.8,1.4-1.1c0.6-0.3,1.2-0.4,1.9-0.4c0.4,0,0.9,0.1,1.3,0.2c0.4,0.1,0.8,0.3,1.2,0.6
			c0.3,0.3,0.6,0.6,0.9,1c0.2,0.4,0.4,0.8,0.4,1.3h-0.8V75.4z"/>
		<path class="st0" d="M160.2,82.4c-0.8,0-1.5-0.1-2-0.4c-0.6-0.3-1.1-0.7-1.5-1.1c-0.4-0.5-0.7-1-0.9-1.6s-0.3-1.3-0.3-1.9
			c0-0.7,0.1-1.3,0.3-1.9s0.5-1.2,0.9-1.7s0.9-0.9,1.5-1.1c0.6-0.3,1.3-0.4,2-0.4c0.5,0,0.9,0.1,1.4,0.2s0.9,0.3,1.2,0.6
			c0.4,0.3,0.7,0.6,0.9,1s0.4,0.9,0.5,1.4v0.3h-1.4v-0.2c-0.1-0.3-0.2-0.6-0.4-0.9s-0.4-0.5-0.6-0.6c-0.2-0.2-0.5-0.3-0.8-0.4
			s-0.6-0.1-0.9-0.1c-0.6,0-1.1,0.1-1.5,0.3c-0.4,0.2-0.8,0.5-1,0.9c-0.3,0.4-0.5,0.8-0.6,1.2c-0.1,0.5-0.2,1-0.2,1.4
			c0,0.5,0.1,1,0.2,1.4c0.1,0.5,0.3,0.9,0.6,1.2c0.3,0.4,0.6,0.6,1,0.9c0.4,0.2,0.9,0.3,1.5,0.3c0.4,0,0.8-0.1,1.1-0.2
			s0.6-0.3,0.8-0.6c0.2-0.2,0.4-0.5,0.6-0.9c0.1-0.3,0.2-0.7,0.3-1.1v-0.2h1.4v0.3c-0.1,0.6-0.2,1.2-0.4,1.6
			c-0.2,0.5-0.5,0.9-0.9,1.3s-0.8,0.6-1.3,0.8C161.3,82.3,160.8,82.4,160.2,82.4z M160.2,72.6c-0.7,0-1.3,0.1-1.8,0.4s-1,0.6-1.3,1
			s-0.6,0.9-0.8,1.5s-0.3,1.2-0.3,1.8c0,0.6,0.1,1.2,0.3,1.8c0.2,0.6,0.4,1.1,0.8,1.5c0.3,0.4,0.8,0.8,1.3,1s1.1,0.4,1.8,0.4
			c0.5,0,1-0.1,1.4-0.2c0.4-0.2,0.8-0.4,1.1-0.7c0.3-0.3,0.6-0.7,0.8-1.1s0.3-0.8,0.4-1.2h-0.4c-0.1,0.4-0.2,0.7-0.3,1
			c-0.2,0.4-0.4,0.7-0.7,1s-0.6,0.5-1,0.7s-0.8,0.3-1.3,0.3c-0.7,0-1.2-0.1-1.7-0.4s-0.9-0.6-1.2-1s-0.5-0.9-0.7-1.4
			c-0.1-0.5-0.2-1-0.2-1.6c0-0.5,0.1-1.1,0.2-1.6c0.1-0.5,0.4-1,0.7-1.4s0.7-0.8,1.2-1c0.5-0.3,1.1-0.4,1.7-0.4
			c0.4,0,0.7,0.1,1.1,0.2c0.3,0.1,0.6,0.3,0.9,0.5c0.3,0.2,0.5,0.5,0.7,0.8s0.3,0.5,0.4,0.9h0.4c-0.1-0.3-0.2-0.7-0.4-0.9
			c-0.2-0.3-0.5-0.6-0.8-0.9c-0.3-0.2-0.7-0.4-1.1-0.5C161,72.7,160.6,72.6,160.2,72.6z"/>
	</g>
	<g>
		<path class="st0" d="M178.2,72.6h0.9v4.1h5.6v-4.1h0.9V82h-0.9v-4.6h-5.6V82h-0.9V72.6z"/>
		<path class="st0" d="M185.9,82.2h-1.4v-4.6h-5.1v4.6H178v-9.9h1.4v4.1h5.1v-4.1h1.4V82.2z M185,81.7h0.4v-8.9H185v4.1h-6.1v-4.1
			h-0.4v8.9h0.4v-4.6h6.1V81.7z"/>
	</g>
	<g>
		<path class="st0" d="M224.7,82h-0.6l-0.1-1.7l0,0c-0.2,0.3-0.4,0.6-0.6,0.9c-0.2,0.2-0.5,0.4-0.8,0.6s-0.6,0.3-0.9,0.3
			c-0.3,0.1-0.7,0.1-1,0.1c-0.7,0-1.4-0.1-1.9-0.4c-0.6-0.3-1-0.6-1.4-1.1s-0.6-1-0.8-1.6s-0.3-1.2-0.3-1.8c0-0.6,0.1-1.3,0.3-1.8
			c0.2-0.6,0.5-1.1,0.8-1.6c0.4-0.5,0.8-0.8,1.4-1.1c0.6-0.3,1.2-0.4,1.9-0.4c0.5,0,1,0.1,1.4,0.2s0.8,0.3,1.2,0.6
			c0.3,0.3,0.6,0.6,0.9,1c0.2,0.4,0.4,0.8,0.5,1.3h-0.9c0-0.3-0.1-0.5-0.3-0.8s-0.4-0.5-0.6-0.8c-0.3-0.2-0.6-0.4-0.9-0.6
			c-0.4-0.1-0.8-0.2-1.2-0.2c-0.6,0-1.2,0.1-1.6,0.4c-0.4,0.2-0.8,0.6-1.1,0.9c-0.3,0.4-0.5,0.8-0.6,1.3s-0.2,1-0.2,1.5
			s0.1,1,0.2,1.5c0.1,0.5,0.3,0.9,0.6,1.3s0.7,0.7,1.1,0.9c0.4,0.2,1,0.4,1.6,0.4c0.5,0,1-0.1,1.4-0.3c0.4-0.2,0.8-0.4,1-0.7
			c0.3-0.3,0.5-0.7,0.6-1.1s0.2-0.9,0.2-1.4h-3.2V77h4L224.7,82L224.7,82z"/>
		<path class="st0" d="M220.7,82.4c-0.8,0-1.5-0.1-2-0.4c-0.6-0.3-1.1-0.7-1.5-1.1c-0.4-0.5-0.7-1-0.9-1.6S216,78,216,77.4
			c0-0.7,0.1-1.3,0.3-1.9s0.5-1.2,0.9-1.7s0.9-0.9,1.5-1.1c0.6-0.3,1.3-0.4,2-0.4c0.5,0,1,0.1,1.5,0.2s0.9,0.4,1.3,0.6
			c0.4,0.3,0.7,0.6,0.9,1.1c0.2,0.4,0.4,0.9,0.5,1.4l0.1,0.3h-1.4v-0.2c0-0.2-0.1-0.5-0.2-0.7c-0.1-0.3-0.3-0.5-0.6-0.7
			c-0.2-0.2-0.5-0.4-0.9-0.5c-0.3-0.1-0.7-0.2-1.1-0.2c-0.6,0-1.1,0.1-1.5,0.3c-0.4,0.2-0.8,0.5-1,0.9c-0.3,0.4-0.5,0.8-0.6,1.2
			c-0.1,0.5-0.2,1-0.2,1.4c0,0.5,0.1,1,0.2,1.4c0.1,0.5,0.3,0.9,0.6,1.2c0.3,0.4,0.6,0.6,1,0.9c0.4,0.2,0.9,0.3,1.5,0.3
			c0.5,0,0.9-0.1,1.3-0.2c0.4-0.2,0.7-0.4,0.9-0.7c0.3-0.3,0.5-0.6,0.6-1c0.1-0.3,0.2-0.7,0.2-1.1h-3.2V77h4.5v5.3H224l-0.1-1.2
			c-0.1,0.1-0.2,0.2-0.2,0.3c-0.2,0.3-0.5,0.5-0.8,0.6c-0.3,0.2-0.6,0.3-1,0.4C221.4,82.4,221,82.4,220.7,82.4z M220.7,72.6
			c-0.7,0-1.3,0.1-1.8,0.4s-1,0.6-1.3,1s-0.6,0.9-0.8,1.5s-0.3,1.2-0.3,1.8c0,0.6,0.1,1.2,0.3,1.8c0.2,0.6,0.4,1.1,0.8,1.5
			c0.3,0.4,0.8,0.8,1.3,1s1.1,0.4,1.8,0.4c0.3,0,0.6,0,0.9-0.1c0.3-0.1,0.6-0.2,0.8-0.3c0.3-0.1,0.5-0.3,0.7-0.5s0.4-0.5,0.5-0.8
			l0.1-0.1h0.4v0.2l0.1,1.5h0.2v-4.3H221v0.3h3.2v0.2c0,0.5-0.1,1-0.2,1.5c-0.2,0.5-0.4,0.9-0.7,1.2c-0.3,0.3-0.7,0.6-1.1,0.8
			c-0.4,0.2-0.9,0.3-1.5,0.3c-0.7,0-1.2-0.1-1.7-0.4s-0.9-0.6-1.2-1s-0.5-0.9-0.7-1.4c-0.1-0.5-0.2-1-0.2-1.6c0-0.5,0.1-1.1,0.2-1.6
			c0.1-0.5,0.4-1,0.7-1.4s0.7-0.8,1.2-1c0.5-0.3,1.1-0.4,1.7-0.4c0.5,0,0.9,0.1,1.3,0.2c0.4,0.2,0.7,0.4,1,0.6s0.5,0.5,0.7,0.8
			c0.1,0.2,0.2,0.5,0.3,0.7h0.4c-0.1-0.4-0.2-0.7-0.4-1c-0.2-0.4-0.5-0.7-0.8-0.9c-0.3-0.2-0.7-0.4-1.1-0.6
			C221.6,72.7,221.1,72.6,220.7,72.6z"/>
	</g>
	<g>
		<path class="st0" d="M239.2,72.6h4.3c0.4,0,0.8,0,1.1,0.1s0.6,0.2,0.9,0.4c0.3,0.2,0.5,0.5,0.6,0.8c0.2,0.3,0.2,0.7,0.2,1.1
			c0,0.6-0.2,1.1-0.5,1.6c-0.3,0.4-0.8,0.7-1.4,0.8l0,0c0.3,0,0.6,0.1,0.8,0.2s0.4,0.3,0.5,0.5s0.2,0.4,0.3,0.6s0.1,0.5,0.1,0.8
			c0,0.2,0,0.4,0,0.6s0,0.5,0.1,0.7c0,0.2,0.1,0.5,0.1,0.7c0.1,0.2,0.1,0.4,0.2,0.5h-1c-0.1-0.1-0.1-0.2-0.1-0.3
			c0-0.1-0.1-0.3-0.1-0.4s0-0.3,0-0.4s0-0.2,0-0.3c0-0.3,0-0.7-0.1-1c0-0.3-0.1-0.6-0.3-0.9c-0.1-0.3-0.3-0.5-0.6-0.6
			c-0.2-0.2-0.6-0.2-1-0.2h-3.4V82H239v-9.4H239.2z M240.1,77h3.3c0.3,0,0.5,0,0.8-0.1c0.2-0.1,0.5-0.2,0.6-0.4
			c0.2-0.2,0.3-0.3,0.4-0.6c0.1-0.2,0.2-0.5,0.2-0.8c0-0.6-0.2-1-0.5-1.4c-0.3-0.3-0.8-0.5-1.5-0.5h-3.3V77z"/>
		<path class="st0" d="M247.2,82.2h-1.7l-0.1-0.1c-0.1-0.1-0.1-0.2-0.2-0.4c0-0.1-0.1-0.3-0.1-0.4s0-0.3,0-0.4s0-0.2,0-0.3
			c0-0.3,0-0.7-0.1-1c0-0.3-0.1-0.6-0.2-0.8c-0.1-0.2-0.3-0.4-0.5-0.5s-0.5-0.2-0.8-0.2h-3.2v4.2H239v-9.9h4.6
			c0.4,0,0.8,0.1,1.2,0.2s0.7,0.3,1,0.5s0.5,0.5,0.7,0.9c0.2,0.3,0.3,0.8,0.3,1.2c0,0.6-0.2,1.2-0.5,1.7c-0.2,0.3-0.5,0.5-0.8,0.7
			c0,0,0.1,0,0.1,0.1c0.2,0.1,0.4,0.3,0.6,0.5c0.1,0.2,0.2,0.5,0.3,0.7c0.1,0.3,0.1,0.5,0.1,0.8v0.6c0,0.2,0,0.4,0.1,0.7
			c0,0.2,0.1,0.4,0.1,0.6s0.1,0.3,0.2,0.4L247.2,82.2z M245.8,81.7h0.4c0-0.1,0-0.1-0.1-0.2c-0.1-0.2-0.1-0.5-0.1-0.7s0-0.5-0.1-0.7
			v-0.6c0-0.3-0.1-0.5-0.1-0.7c-0.1-0.2-0.1-0.4-0.2-0.6c-0.1-0.2-0.2-0.3-0.4-0.4s-0.4-0.2-0.7-0.2h-0.1c0.1,0,0.2,0.1,0.2,0.1
			c0.3,0.2,0.5,0.4,0.6,0.7c0.1,0.3,0.2,0.6,0.3,1c0,0.3,0.1,0.7,0.1,1c0,0.1,0,0.2,0,0.3c0,0.1,0,0.2,0,0.4c0,0.1,0,0.2,0.1,0.4
			C245.8,81.6,245.8,81.7,245.8,81.7z M239.5,81.7h0.4v-4.2h3.6c0.3,0,0.6,0,0.8,0.1v-0.4l0.2-0.1c0.5-0.1,0.9-0.4,1.2-0.7
			c0.3-0.4,0.4-0.9,0.4-1.4c0-0.4-0.1-0.7-0.2-1c-0.1-0.3-0.3-0.5-0.5-0.7s-0.5-0.3-0.8-0.4s-0.7-0.1-1-0.1h-4.1L239.5,81.7
			L239.5,81.7z M243.4,77.3h-3.6v-4.2h3.6c0.7,0,1.3,0.2,1.7,0.6s0.6,0.9,0.6,1.5c0,0.3-0.1,0.6-0.2,0.9c-0.1,0.3-0.3,0.5-0.5,0.7
			s-0.5,0.3-0.7,0.4C244,77.2,243.7,77.3,243.4,77.3z M240.4,76.8h3.1c0.2,0,0.5,0,0.7-0.1s0.4-0.2,0.6-0.3c0.2-0.1,0.3-0.3,0.4-0.5
			c0.1-0.2,0.1-0.4,0.1-0.7c0-0.5-0.1-0.9-0.4-1.2c-0.3-0.3-0.7-0.4-1.3-0.4h-3.1v3.2H240.4z"/>
	</g>
	<g>
		<path class="st0" d="M260.2,77.3c0-0.6,0.1-1.3,0.3-1.8c0.2-0.6,0.5-1.1,0.8-1.6c0.4-0.5,0.8-0.8,1.4-1.1c0.6-0.3,1.2-0.4,1.9-0.4
			c0.7,0,1.4,0.1,1.9,0.4c0.6,0.3,1,0.6,1.4,1.1s0.6,1,0.8,1.6c0.2,0.6,0.3,1.2,0.3,1.8c0,0.6-0.1,1.3-0.3,1.8
			c-0.2,0.6-0.5,1.1-0.8,1.6c-0.4,0.5-0.8,0.8-1.4,1.1c-0.6,0.3-1.2,0.4-1.9,0.4c-0.7,0-1.4-0.1-1.9-0.4c-0.6-0.3-1-0.6-1.4-1.1
			s-0.6-1-0.8-1.6C260.3,78.5,260.2,77.9,260.2,77.3z M261.1,77.3c0,0.5,0.1,1,0.2,1.5s0.3,0.9,0.6,1.3c0.3,0.4,0.7,0.7,1.1,0.9
			c0.4,0.2,1,0.4,1.6,0.4s1.1-0.1,1.6-0.4c0.4-0.2,0.8-0.6,1.1-0.9c0.3-0.4,0.5-0.8,0.6-1.3s0.2-1,0.2-1.5s-0.1-1-0.2-1.5
			s-0.3-0.9-0.6-1.3c-0.3-0.4-0.7-0.7-1.1-0.9c-0.4-0.2-1-0.4-1.6-0.4s-1.2,0.1-1.6,0.4c-0.4,0.2-0.8,0.6-1.1,0.9
			c-0.3,0.4-0.5,0.8-0.6,1.3S261.1,76.8,261.1,77.3z"/>
		<path class="st0" d="M264.7,82.4c-0.8,0-1.5-0.1-2-0.4c-0.6-0.3-1.1-0.7-1.5-1.1c-0.4-0.5-0.7-1-0.9-1.6c-0.2-0.6-0.3-1.3-0.3-1.9
			c0-0.7,0.1-1.3,0.3-1.9c0.2-0.6,0.5-1.2,0.9-1.7s0.9-0.9,1.5-1.1c0.6-0.3,1.3-0.4,2-0.4c0.8,0,1.5,0.1,2,0.4
			c0.6,0.3,1.1,0.7,1.5,1.1c0.4,0.5,0.7,1,0.9,1.7c0.2,0.6,0.3,1.3,0.3,1.9c0,0.7-0.1,1.3-0.3,1.9c-0.2,0.6-0.5,1.2-0.9,1.6
			c-0.4,0.5-0.9,0.9-1.5,1.1C266.1,82.3,265.5,82.4,264.7,82.4z M264.7,72.6c-0.7,0-1.3,0.1-1.8,0.4s-1,0.6-1.3,1s-0.6,0.9-0.8,1.5
			c-0.2,0.6-0.3,1.2-0.3,1.8c0,0.6,0.1,1.2,0.3,1.8c0.2,0.6,0.4,1.1,0.8,1.5c0.3,0.4,0.8,0.8,1.3,1s1.1,0.4,1.8,0.4
			c0.7,0,1.3-0.1,1.8-0.4s1-0.6,1.3-1s0.6-0.9,0.8-1.5c0.2-0.6,0.3-1.2,0.3-1.8c0-0.6-0.1-1.2-0.3-1.8c-0.2-0.6-0.4-1.1-0.8-1.5
			c-0.3-0.4-0.8-0.8-1.3-1S265.4,72.6,264.7,72.6z M264.7,81.7c-0.7,0-1.2-0.1-1.7-0.4s-0.9-0.6-1.2-1c-0.3-0.4-0.5-0.9-0.7-1.4
			c-0.1-0.5-0.2-1-0.2-1.6c0-0.5,0.1-1.1,0.2-1.6s0.4-1,0.7-1.4c0.3-0.4,0.7-0.8,1.2-1c0.5-0.3,1.1-0.4,1.7-0.4
			c0.7,0,1.2,0.1,1.7,0.4s0.9,0.6,1.2,1c0.3,0.4,0.5,0.9,0.7,1.4c0.1,0.5,0.2,1,0.2,1.6c0,0.5-0.1,1.1-0.2,1.6s-0.4,1-0.7,1.4
			c-0.3,0.4-0.7,0.8-1.2,1C265.9,81.5,265.3,81.7,264.7,81.7z M264.7,73.4c-0.6,0-1.1,0.1-1.5,0.3c-0.4,0.2-0.8,0.5-1,0.9
			c-0.3,0.4-0.5,0.8-0.6,1.2c-0.1,0.5-0.2,1-0.2,1.4c0,0.5,0.1,1,0.2,1.4c0.1,0.5,0.3,0.9,0.6,1.2c0.3,0.4,0.6,0.6,1,0.9
			c0.4,0.2,0.9,0.3,1.5,0.3s1.1-0.1,1.5-0.3c0.4-0.2,0.8-0.5,1-0.9c0.3-0.4,0.5-0.8,0.6-1.2c0.1-0.5,0.2-1,0.2-1.4
			c0-0.5-0.1-1-0.2-1.4c-0.1-0.5-0.3-0.9-0.6-1.2c-0.3-0.4-0.6-0.6-1-0.9C265.7,73.5,265.2,73.4,264.7,73.4z"/>
	</g>
	<g>
		<path class="st0" d="M283.2,72.6h0.9v5.8c0,0.5,0.1,1,0.2,1.4s0.3,0.7,0.5,0.9c0.2,0.2,0.5,0.4,0.9,0.5c0.3,0.1,0.7,0.2,1.2,0.2
			c0.4,0,0.8-0.1,1.2-0.2c0.3-0.1,0.6-0.3,0.9-0.5c0.2-0.2,0.4-0.6,0.5-0.9c0.1-0.4,0.2-0.8,0.2-1.4v-5.8h0.9v6
			c0,0.5-0.1,0.9-0.2,1.4c-0.1,0.4-0.4,0.8-0.6,1.1c-0.3,0.3-0.7,0.6-1.1,0.8c-0.5,0.2-1,0.3-1.7,0.3c-0.6,0-1.2-0.1-1.7-0.3
			c-0.5-0.2-0.8-0.5-1.1-0.8c-0.3-0.3-0.5-0.7-0.6-1.1s-0.2-0.9-0.2-1.4v-6H283.2z"/>
		<path class="st0" d="M286.8,82.4c-0.7,0-1.3-0.1-1.8-0.3c-0.5-0.2-0.9-0.5-1.2-0.8c-0.3-0.3-0.6-0.8-0.7-1.2
			c-0.1-0.5-0.2-0.9-0.2-1.4v-6.3h1.4v6.1c0,0.5,0.1,1,0.2,1.3s0.3,0.6,0.5,0.8c0.2,0.2,0.5,0.4,0.8,0.5c0.6,0.2,1.5,0.2,2.2,0
			c0.3-0.1,0.6-0.3,0.8-0.5c0.2-0.2,0.4-0.5,0.5-0.8c0.1-0.4,0.2-0.8,0.2-1.3v-6.1h1.4v6.3c0,0.5-0.1,1-0.2,1.4
			c-0.1,0.5-0.4,0.9-0.7,1.2c-0.3,0.4-0.7,0.6-1.2,0.8C288.1,82.3,287.5,82.4,286.8,82.4z M283.4,72.8v5.8c0,0.5,0.1,0.9,0.2,1.3
			s0.3,0.7,0.6,1c0.3,0.3,0.6,0.5,1,0.7s1,0.3,1.6,0.3s1.2-0.1,1.6-0.3c0.4-0.2,0.8-0.4,1-0.7c0.3-0.3,0.5-0.6,0.6-1
			s0.2-0.8,0.2-1.3v-5.8h-0.4v5.6c0,0.6-0.1,1.1-0.2,1.5s-0.3,0.8-0.6,1s-0.6,0.5-1,0.6c-0.7,0.2-1.8,0.2-2.5,0
			c-0.4-0.1-0.7-0.3-1-0.6c-0.3-0.3-0.5-0.6-0.6-1s-0.2-0.9-0.2-1.5v-5.6H283.4z"/>
	</g>
	<g>
		<path class="st0" d="M305,72.6h4.2c0.4,0,0.8,0.1,1.1,0.2c0.3,0.1,0.6,0.3,0.9,0.5c0.2,0.2,0.4,0.5,0.6,0.8
			c0.1,0.3,0.2,0.7,0.2,1.1s-0.1,0.8-0.2,1.1c-0.1,0.3-0.3,0.6-0.6,0.8c-0.2,0.2-0.5,0.4-0.9,0.5c-0.3,0.1-0.7,0.2-1.1,0.2h-3.3v4
			H305V72.6z M305.9,77.2h3.1c0.6,0,1.1-0.2,1.5-0.5s0.6-0.8,0.6-1.4s-0.2-1.1-0.6-1.4s-0.9-0.5-1.5-0.5h-3.1V77.2z"/>
		<path class="st0" d="M306.2,82.2h-1.4v-9.9h4.4c0.4,0,0.9,0.1,1.2,0.2c0.4,0.1,0.7,0.3,1,0.6c0.3,0.3,0.5,0.6,0.6,0.9
			c0.1,0.4,0.2,0.8,0.2,1.2c0,0.5-0.1,0.9-0.2,1.2c-0.1,0.4-0.4,0.7-0.6,0.9c-0.3,0.3-0.6,0.5-1,0.6s-0.8,0.2-1.2,0.2h-3V82.2z
			 M305.3,81.7h0.4v-4h3.5c0.4,0,0.7-0.1,1.1-0.2c0.3-0.1,0.6-0.3,0.8-0.5c0.2-0.2,0.4-0.5,0.5-0.8s0.2-0.7,0.2-1
			c0-0.4-0.1-0.7-0.2-1s-0.3-0.6-0.5-0.8c-0.2-0.2-0.5-0.4-0.8-0.5s-0.7-0.2-1.1-0.2h-3.9V81.7z M309,77.4h-3.3v-4.3h3.3
			c0.7,0,1.2,0.2,1.7,0.5c0.4,0.4,0.7,0.9,0.7,1.6s-0.2,1.3-0.7,1.6C310.3,77.3,309.7,77.4,309,77.4z M306.2,76.9h2.8
			c0.6,0,1-0.1,1.4-0.4c0.3-0.3,0.5-0.7,0.5-1.3s-0.2-1-0.5-1.3s-0.8-0.4-1.4-0.4h-2.8V76.9z"/>
	</g>
</g>
<g>
	<path class="st0" d="M157.6,49c0.7-1.7,1.7-3.1,2.9-4.2c1.2-1.1,2.6-1.7,4.2-1.7c1.7,0,3.7,0.7,6.1,2.2c2.4,1.5,4.1,2.2,5.4,2.2
		c1.2,0,2.2-0.3,3-1c0.8-0.6,1.6-1.6,2.4-3l1.7,1.1c-0.6,1.3-1.6,2.5-2.9,3.8c-1.3,1.3-2.9,1.9-4.8,1.9c-1.8,0-3.9-0.7-6.2-2.2
		s-4.1-2.2-5.4-2.2c-1,0-1.9,0.3-2.7,1s-1.5,1.6-2.1,2.9L157.6,49z"/>
</g>
</svg>
