<?xml version="1.0" encoding="utf-8"?>
<!-- Generator: Adobe Illustrator 22.1.0, SVG Export Plug-In . SVG Version: 6.00 Build 0)  -->
<svg version="1.1" id="Layer_1" xmlns="http://www.w3.org/2000/svg" xmlns:xlink="http://www.w3.org/1999/xlink" x="0px" y="0px"
	 viewBox="0 0 285.6 279.8" style="enable-background:new 0 0 285.6 279.8;" xml:space="preserve">
<style type="text/css">
	.st0{clip-path:url(#SVGID_2_);}
	.st1{clip-path:url(#SVGID_4_);}
	.st2{clip-path:url(#SVGID_6_);}
	.st3{clip-path:url(#SVGID_8_);}
	.st4{clip-path:url(#SVGID_10_);}
	.st5{clip-path:url(#SVGID_12_);}
	.st6{clip-path:url(#SVGID_14_);}
	.st7{clip-path:url(#SVGID_16_);}
	.st8{clip-path:url(#SVGID_18_);}
	.st9{clip-path:url(#SVGID_20_);}
	.st10{clip-path:url(#SVGID_22_);}
	.st11{clip-path:url(#SVGID_24_);}
</style>
<g>
	<g>
		<path d="M35.9,254.4c1,0,1.7,0.7,1.7,1.6c0,0.9-0.7,1.6-1.7,1.6h-9c-1,0-1.7-0.7-1.7-1.7v-17.2c0-1,0.8-1.8,1.8-1.8
			s1.8,0.8,1.8,1.8v15.6H35.9z"/>
		<path d="M37.5,247.5c0-7.2,3.5-10.6,9.6-10.6c6.1,0,9.6,3.5,9.6,10.6c0,7.1-3.5,10.6-9.6,10.6C41,258.1,37.5,254.6,37.5,247.5z
			 M41.1,247.5c0,5,2,7.5,6,7.5c4,0,6-2.5,6-7.5c0-5-2-7.5-6-7.5C43.1,240,41.1,242.5,41.1,247.5z"/>
		<path d="M75,238.8v17.4c0,0.9-0.8,1.7-1.7,1.7c-0.6,0-1.1-0.3-1.4-0.8l-8.9-12.9v11.9c0,0.9-0.8,1.7-1.7,1.7
			c-0.9,0-1.7-0.8-1.7-1.7v-17.4c0-0.9,0.8-1.7,1.7-1.7c0.6,0,1.1,0.3,1.4,0.7l9,13v-12c0-0.9,0.8-1.7,1.7-1.7
			C74.2,237,75,237.8,75,238.8z"/>
		<path d="M84.3,237.3c6,0,9.8,2.7,9.8,10.2c0,7.5-3.8,10.2-9.8,10.2h-4.1c-1,0-1.8-0.8-1.8-1.8V239c0-1,0.8-1.8,1.8-1.8H84.3z
			 M82,254.5h2.3c3.9,0,6.2-1.8,6.2-7c0-5.3-2.3-7.1-6.2-7.1H82V254.5z"/>
		<path d="M96.2,247.5c0-7.2,3.5-10.6,9.6-10.6c6.1,0,9.6,3.5,9.6,10.6c0,7.1-3.5,10.6-9.6,10.6C99.6,258.1,96.2,254.6,96.2,247.5z
			 M99.8,247.5c0,5,2,7.5,6,7.5c4,0,6-2.5,6-7.5c0-5-2-7.5-6-7.5C101.8,240,99.8,242.5,99.8,247.5z"/>
		<path d="M133.6,238.8v17.4c0,0.9-0.8,1.7-1.7,1.7c-0.6,0-1.1-0.3-1.4-0.8l-8.9-12.9v11.9c0,0.9-0.8,1.7-1.7,1.7
			c-0.9,0-1.7-0.8-1.7-1.7v-17.4c0-0.9,0.8-1.7,1.7-1.7c0.6,0,1.1,0.3,1.4,0.7l9,13v-12c0-0.9,0.8-1.7,1.7-1.7
			S133.6,237.8,133.6,238.8z"/>
		<path d="M143.2,247.5c0-7.2,3.5-10.6,9.6-10.6c6.1,0,9.6,3.5,9.6,10.6c0,7.1-3.5,10.6-9.6,10.6
			C146.6,258.1,143.2,254.6,143.2,247.5z M146.8,247.5c0,5,2,7.5,6,7.5c4,0,6-2.5,6-7.5c0-5-2-7.5-6-7.5
			C148.8,240,146.8,242.5,146.8,247.5z"/>
		<path d="M180.6,238.8v17.4c0,0.9-0.8,1.7-1.7,1.7c-0.6,0-1.1-0.3-1.4-0.8l-8.9-12.9v11.9c0,0.9-0.8,1.7-1.7,1.7s-1.7-0.8-1.7-1.7
			v-17.4c0-0.9,0.8-1.7,1.7-1.7c0.6,0,1.1,0.3,1.4,0.7l9,13v-12c0-0.9,0.8-1.7,1.7-1.7C179.8,237,180.6,237.8,180.6,238.8z"/>
		<path d="M192.6,240.4v15.8c0,1-0.8,1.8-1.8,1.8c-1,0-1.8-0.8-1.8-1.8v-15.8h-4.6c-0.8,0-1.5-0.7-1.5-1.5c0-0.8,0.7-1.5,1.5-1.5
			h12.8c0.8,0,1.5,0.7,1.5,1.5c0,0.8-0.7,1.5-1.5,1.5H192.6z"/>
		<path d="M202.2,252.4l-1.8,4.4c-0.3,0.6-0.8,1.2-1.6,1.2c-0.9,0-1.7-0.8-1.7-1.7c0-0.2,0-0.4,0.1-0.6l7.2-17.4
			c0.2-0.4,0.7-1.1,1.6-1.1s1.4,0.7,1.6,1.1l7.1,17.4c0.1,0.2,0.1,0.5,0.1,0.6c0,0.9-0.8,1.7-1.7,1.7c-0.8,0-1.4-0.5-1.6-1.2
			l-1.8-4.4H202.2z M205.8,242.8l-2.5,6.4h5L205.8,242.8z"/>
		<path d="M220.6,249.9v6.3c0,1-0.8,1.8-1.8,1.8c-1,0-1.8-0.8-1.8-1.8V239c0-1,0.8-1.8,1.8-1.8h5.8c4.1,0,6.4,2.9,6.4,6.3
			c0,2.9-1.8,5.7-4.7,6l4.5,5.5c0.3,0.4,0.4,0.7,0.4,1.1c0,1-0.8,1.8-1.8,1.8c-0.5,0-1.1-0.2-1.4-0.6l-5.5-7.4H220.6z M220.6,240.4
			v6.3h4.1c1.9,0,2.7-1.5,2.7-3.2c0-1.6-0.8-3.2-2.8-3.2H220.6z"/>
		<path d="M237.6,256.2c0,1-0.8,1.8-1.8,1.8c-1,0-1.8-0.8-1.8-1.8v-17.4c0-1,0.8-1.8,1.8-1.8c1,0,1.8,0.8,1.8,1.8V256.2z"/>
		<path d="M240.4,247.5c0-7.2,3.5-10.6,9.6-10.6s9.6,3.5,9.6,10.6c0,7.1-3.5,10.6-9.6,10.6S240.4,254.6,240.4,247.5z M244.1,247.5
			c0,5,2,7.5,6,7.5c4,0,6-2.5,6-7.5c0-5-2-7.5-6-7.5C246.1,240,244.1,242.5,244.1,247.5z"/>
	</g>
	<g>
		<g>
			<defs>
				<path id="SVGID_1_" d="M259.1,214.8H157.3H150H28.8h-2.6c-4.9,0-4.9,7.6,0,7.6H128h7.3h121.2h2.6
					C264,222.4,264,214.8,259.1,214.8"/>
			</defs>
			<use xlink:href="#SVGID_1_"  style="overflow:visible;fill-rule:evenodd;clip-rule:evenodd;"/>
			<clipPath id="SVGID_2_">
				<use xlink:href="#SVGID_1_"  style="overflow:visible;"/>
			</clipPath>
			<g class="st0">
				<defs>
					<rect id="SVGID_3_" x="-32.5" y="-39.6" width="1041" height="673.6"/>
				</defs>
				<use xlink:href="#SVGID_3_"  style="overflow:visible;"/>
				<clipPath id="SVGID_4_">
					<use xlink:href="#SVGID_3_"  style="overflow:visible;"/>
				</clipPath>
				<g class="st1">
					<rect x="21.5" y="213.8" width="242.2" height="9.6"/>
				</g>
			</g>
		</g>
		<g>
			<defs>
				<path id="SVGID_5_" d="M259.8,79.8c-2.3-3-7-6.1-9.9-9.7c0.9-2.5,1.5-5.1,1.8-7.8c0.8-6.7-6.3-7.3-9.5-2.7
					c-2.6,3.7-1.7,7.5,0.4,11c-0.6,1.2-1.3,2.4-2,3.5c-2.8,4.6-6.9,8.6-11.4,11.6c-3.1,2.1-7.3,4.2-11.2,3c0.6-0.4,1.1-0.9,1.6-1.3
					c5.5-4.3,13-11.1,13.4-18.7c0.3-6.5-5.8-11.4-11.9-8.4c-6.8,3.3-11.1,11.7-12.4,18.9c-0.4,2.5-0.3,5.2,0.4,7.7
					c-5.1,3.1-13.8,7.2-14.9-1.5c-0.4-2.8-0.1-5.8,0.4-8.7c0.8-2.3,1.4-4.6,1.8-6.9c0.7-2.1-0.7-3.6-2.4-3.9c-1.6-0.5-3.5,0-3.9,2.2
					c-1.3,6.5-3.4,12.8-7,16.6c-4.6,4.9-8.3,3.8-10.8-0.2c2.1-4.5,3.7-9.3,5.4-13.9c2.7-7.4,5.3-15.1,6.1-23
					c0.5-5.2-0.9-11.2-7.1-11.5c-5.7-0.3-8.9,6.2-10.6,10.6c-1.8,4.6-2.8,9.7-3.2,14.8c-1.8-0.3-3.7-0.1-5.6,0.6
					c-6.2,2.3-10.1,10.1-11.6,15c-1.4,4.4-5.5,12.6-10.9,13.3c-2,0.2-2.3-4-2.4-5.3c-0.5-4.2-0.1-9.3,0.5-13.2
					c0.6-3.9-5-5.7-6.2-2.3c-0.4-0.3-0.8-0.7-1.2-1c-3.3-2.2-7.2-0.9-10.8,1.1c-2.9,1.6-7.7,7.1-10.1,10.2
					c-6.9,8.6-18.7,19.7-43.4,7.9c2.6-5.7,3.2-12.6,3.6-18.7c0.7-10.6-0.1-22.3,5-31.9c3.1-5.8,9.6-10.1,16.4-9.1
					c6.2,0.9,8.6,5.9,5.9,11.4c-1.8,3.8,3.8,7.1,5.6,3.3c7-14.2-6.6-24.6-20.2-20.3C57.4,29,59.4,55.1,58.1,71.7
					c-0.3,4.6-1.1,9-2.8,12.6c-3.8-2.6-7.4-5.3-11.9-6.5c-6.2-1.6-15.6,0.3-19.2,6c-4,6.3,0,13.2,6.3,15.9
					c8.5,3.6,19.7,0.8,26.3-5.4c0.3-0.3,0.6-0.7,1-1c4.4,2.3,9.1,4,14.3,4.8c10.7,1.7,22.2,0.3,30.5-6c2.2,7.5,12.2,9.2,19.2,3.1
					c1.9-1.7,3.6-3.7,5-5.8c0.3,0.9,0.6,1.7,1,2.6c1.6,3.4,5,5.7,8.9,4.7c3.7-0.9,6.6-3.3,9-6.2c0.9,4.5,3.5,8.2,9.3,8.1
					c5.2,0,10.4-3.5,13.9-7.8c0.3,0.4,0.7,0.8,1.1,1.1c5.9,5.5,14.2,2.2,18.7-3.3c1.3,4.8,4.5,8.4,10.9,8.7c4.4,0.2,9-2,13.1-4.6
					c1.6,1.5,3.6,2.6,6.2,2.8c8.9,0.9,17.4-6,23-12.2c2-2.2,3.8-4.7,5.3-7.3c0.8,0.8,1.6,1.6,2.3,2.2c3.3,3.2,8.7,6.9,6,12
					c-2.6,4.9-9.3,2.6-12.6,0.2c-3.4-2.5-6.7,3.2-3.3,5.6c7.1,5.1,18.9,5,22.4-4.4C263.5,87.5,262.7,83.3,259.8,79.8z M43.3,94.2
					c-4.4,1.1-9.9,1-13.2-2.4c-3.2-3.2,1.2-6.1,4-7.1c6.5-2.2,11.3,0.6,16.5,4.2c0.4,0.3,0.8,0.5,1.1,0.8
					C49.5,91.7,46.8,93.3,43.3,94.2z M115.3,91.7c-3.5,2-6.8,1-6.7-3.1c0-3.1,1.7-6.5,3.7-8.8c1.4-1.7,7.3-6.8,10-5.5
					c3.9,1.8,0,9.6-1.2,11.5c0,0,0,0.1,0,0.1C119.6,88.2,117.8,90.3,115.3,91.7z M176.9,42.6c1.7-0.5-1.2,13.7-1.5,14.7
					c-1.6,5.8-3.7,11.4-5.9,16.9c-0.2-1.5-0.2-6.3-0.3-6.7c0.1-3.4,0.4-6.7,0.9-9.9C170.8,53.8,172.2,43.9,176.9,42.6z M156.2,91.8
					c-4.2,1.3-4.7-2.7-4.7-6c0-5.4,1.4-11.7,5.3-15.7c1-1,6-4.1,6-1.3c0,0,0,0.1,0,0.1c0,0.8,0,1.6,0,2.3c0.2,4.2,0.7,8.9,2.2,13.2
					C163.1,87.7,160.4,90.4,156.2,91.8z M222,67.6c1.6-1.5,4.5-2.9,4.6,0.4c0.3,5.4-6.1,11.1-11.5,14.9c0-1.9,0.4-3.8,0.7-5
					C216.9,74.1,219.1,70.4,222,67.6z"/>
			</defs>
			<use xlink:href="#SVGID_5_"  style="overflow:visible;fill-rule:evenodd;clip-rule:evenodd;"/>
			<clipPath id="SVGID_6_">
				<use xlink:href="#SVGID_5_"  style="overflow:visible;"/>
			</clipPath>
			<g class="st2">
				<defs>
					<rect id="SVGID_7_" x="-32.5" y="-39.6" width="1041" height="673.6"/>
				</defs>
				<use xlink:href="#SVGID_7_"  style="overflow:visible;"/>
				<clipPath id="SVGID_8_">
					<use xlink:href="#SVGID_7_"  style="overflow:visible;"/>
				</clipPath>
				<g class="st3">
					<rect x="21.5" y="20.6" width="242.2" height="81.8"/>
				</g>
			</g>
		</g>
		<g>
			<defs>
				<path id="SVGID_9_" d="M191.5,111.5c-2.3,0-4.2,1.9-4.2,4.2v54.5c0,9.8-3.6,19.1-20.5,19.1c-17,0-20.6-9.4-20.6-19.1v-54.5
					c0-2.3-1.9-4.2-4.2-4.2c-2.3,0-4.2,1.9-4.2,4.2v54.5c0,13.6,5.7,27,29,27c23.3,0,28.9-13.5,28.9-27v-54.5
					C195.7,113.3,193.8,111.5,191.5,111.5"/>
			</defs>
			<use xlink:href="#SVGID_9_"  style="overflow:visible;fill-rule:evenodd;clip-rule:evenodd;"/>
			<clipPath id="SVGID_10_">
				<use xlink:href="#SVGID_9_"  style="overflow:visible;"/>
			</clipPath>
			<g class="st4">
				<defs>
					<rect id="SVGID_11_" x="-32.5" y="-39.6" width="1041" height="673.6"/>
				</defs>
				<use xlink:href="#SVGID_11_"  style="overflow:visible;"/>
				<clipPath id="SVGID_12_">
					<use xlink:href="#SVGID_11_"  style="overflow:visible;"/>
				</clipPath>
				<g class="st5">
					<rect x="136.8" y="110.5" width="59.9" height="87.8"/>
				</g>
			</g>
		</g>
		<g>
			<defs>
				<path id="SVGID_13_" d="M237.7,152.9l23.2-35.1c0.4-0.5,0.6-1.5,0.6-2.2c0-2.3-1.9-4.2-4.2-4.2c-1.7,0-2.8,0.9-3.7,2.1
					L233,145.2l-20.6-31.6c-0.9-1.2-2-2.1-3.7-2.1c-2.3,0-4.2,1.9-4.2,4.2c0,0.7,0.2,1.7,0.6,2.2l23.2,35.1l-24.7,37.1
					c-0.4,0.6-0.6,1.4-0.6,2.2c0,2.3,1.9,4.2,4.2,4.2c1.4,0,2.7-0.6,3.3-1.6l22.5-34.4l22.5,34.4c0.6,1,2,1.6,3.3,1.6
					c2.3,0,4.2-1.9,4.2-4.2c0-0.9-0.2-1.6-0.6-2.2L237.7,152.9"/>
			</defs>
			<use xlink:href="#SVGID_13_"  style="overflow:visible;fill-rule:evenodd;clip-rule:evenodd;"/>
			<clipPath id="SVGID_14_">
				<use xlink:href="#SVGID_13_"  style="overflow:visible;"/>
			</clipPath>
			<g class="st6">
				<defs>
					<rect id="SVGID_15_" x="-32.5" y="-39.6" width="1041" height="673.6"/>
				</defs>
				<use xlink:href="#SVGID_15_"  style="overflow:visible;"/>
				<clipPath id="SVGID_16_">
					<use xlink:href="#SVGID_15_"  style="overflow:visible;"/>
				</clipPath>
				<g class="st7">
					<rect x="202" y="110.5" width="62" height="87.1"/>
				</g>
			</g>
		</g>
		<g>
			<defs>
				<path id="SVGID_17_" d="M120.8,152.9c-0.1,3.7-1.9,7.4-4.4,10c-1.4,1.5-3.9,2.7-5.9,1.9c2.6-4.7,4.2-10.2,5.2-15.3
					c0.1-0.4,0.2-0.9,0.2-1.3c2.7-0.6,5.3-1,7.9-1.2c3-0.2,3-4.9,0-4.6c-2.5,0.2-5,0.5-7.5,1c-0.1-4.6-1.4-9.3-6.9-7.9
					c-4.4,1.1-5.4,6.9-5.8,10.7c0,0.3-0.1,0.7-0.1,1c-3.3,1.3-6.4,2.8-9.2,4.5c-2.6,1.5-0.2,5.6,2.3,4c2-1.2,4.3-2.4,6.6-3.4
					c0,4.2,0.4,8.4,1.8,12.3c0,0.1,0,0.1,0.1,0.2c-0.1,0.1-0.1,0.2-0.2,0.3c-2.2,3.4-6.9,7.1-8.5,1.4c-0.4-1.3-0.5-2.7-0.5-4
					c0.1-0.9,0.1-1.8,0.1-2.7c0-2.6-3.3-2.9-4.3-1c-0.3-0.2-0.7-0.3-1-0.5c-2.5-0.9-5.3,0.9-7.2,2.9c-1.3,1.4-3.6,4.5-4.1,5.2
					c-1.1,1.6-2.2,3.3-3.3,4.9c-0.6,0.9-1.1,1.9-1.7,2.8c-0.1-2.8-0.5-5.6-2.6-7.2c-6.1-4.8-11.4,5.5-14.1,13.1
					c-0.3-0.9-0.5-1.8-0.7-2.8c4.4-6.8,7.7-14.7,9.7-22.4c1-3.8,0.9-11.4-5.2-9.2c-7.6,2.8-9.1,15.2-9.5,21.8
					c-0.2,2.7-0.1,5.6,0.3,8.5c-0.2,0.3-0.3,0.5-0.5,0.8c-0.1,0.1-0.1,0.1-0.2,0.2c-1.6,2.3-3.3,4.5-5.3,6.4
					c-2.9,2.7-5.4,3.1-6.8-0.7c-0.7-2.2-1.2-4.7-1.3-7.2c3-0.8,6-1.4,8.9-1.6c3-0.2,3-4.9,0-4.6c-2.9,0.2-5.8,0.7-8.8,1.4
					c0.2-1.9,0.6-3.7,1.3-5.3c1.1-2.8-3.4-4-4.5-1.2c-0.8,2.1-1.4,5-1.7,8c-3.5,1.2-6.8,2.7-9.8,4.5c-2.6,1.5-0.2,5.5,2.3,4
					c2.3-1.4,4.8-2.6,7.4-3.5c0.3,4.4,1.4,8.7,3.8,11.3c5.4,5.8,12.2-1.1,16.2-6.3c0.6,2.1,1.4,4.2,2.4,6.1c0.9,1.7,3.8,1.4,4.2-0.6
					c1-4.4,3.6-12.6,5.9-15.5c1.4-1.8,2.9-2,3.3-0.5c0.6,2.1,0.5,4.6,0.4,6.8c-0.2,3.6,1.9,6.8,5.1,3.7c1.9-1.9,3.2-4.9,4.5-7.2
					c1.9,4.1,7.8,4,11.5,0.6c1.2-1,2.1-2.4,2.8-3.9c3.7,5.2,10.4,1.7,13.6-2.1c0.3-0.3,0.5-0.7,0.8-1c2.5,1.6,5.9,1.4,9-0.2
					c5.1-2.6,8.1-9.9,8.4-15.4C125.5,149.9,120.9,149.9,120.8,152.9z M61.3,151.4c0.4-0.5,0.8-0.9,1.4-1.3c0,0.1,0,0.2,0,0.3
					c0,2.7-1.2,5.6-2.1,8.1c-1.2,3.6-2.7,7.2-4.5,10.7C56.2,162.5,57.7,155.9,61.3,151.4z M83.7,173.1c-2.2-3.2,2.5-10,5.7-10.4
					c1.4-0.2,1.1,2.5,0.7,4.4C89.4,170.5,85.8,176.1,83.7,173.1z M109.9,140.5c1.4-2.5,1.8,3.1,1.8,3.9c-1.2,0.3-2.4,0.7-3.6,1
					C108.4,143.6,109,141.9,109.9,140.5z M107.5,150.5c1.1-0.4,2.3-0.8,3.5-1.1c-0.1,0.6-0.3,1.1-0.4,1.7c-0.6,2.5-1.4,5-2.4,7.4
					C107.7,156.1,107.4,153.3,107.5,150.5z"/>
			</defs>
			<use xlink:href="#SVGID_17_"  style="overflow:visible;fill-rule:evenodd;clip-rule:evenodd;"/>
			<clipPath id="SVGID_18_">
				<use xlink:href="#SVGID_17_"  style="overflow:visible;"/>
			</clipPath>
			<g class="st8">
				<defs>
					<rect id="SVGID_19_" x="-32.5" y="-39.6" width="1041" height="673.6"/>
				</defs>
				<use xlink:href="#SVGID_19_"  style="overflow:visible;"/>
				<clipPath id="SVGID_20_">
					<use xlink:href="#SVGID_19_"  style="overflow:visible;"/>
				</clipPath>
				<g class="st9">
					<rect x="21.5" y="134.2" width="105.5" height="57.3"/>
				</g>
			</g>
		</g>
	</g>
	<g>
		<defs>
			<path id="SVGID_21_" d="M195.7,59.4c5.8,0,5.9-9,0.1-9C190,50.4,190,59.4,195.7,59.4"/>
		</defs>
		<use xlink:href="#SVGID_21_"  style="overflow:visible;fill-rule:evenodd;clip-rule:evenodd;"/>
		<clipPath id="SVGID_22_">
			<use xlink:href="#SVGID_21_"  style="overflow:visible;"/>
		</clipPath>
		<g class="st10">
			<defs>
				<rect id="SVGID_23_" x="-31.8" y="-39.4" width="1038.6" height="672"/>
			</defs>
			<use xlink:href="#SVGID_23_"  style="overflow:visible;"/>
			<clipPath id="SVGID_24_">
				<use xlink:href="#SVGID_23_"  style="overflow:visible;"/>
			</clipPath>
			<g class="st11">
				<rect x="190.4" y="49.4" width="10.7" height="11"/>
			</g>
		</g>
	</g>
</g>
</svg>
