<svg id="Layer_1" data-name="Layer 1" xmlns="http://www.w3.org/2000/svg" viewBox="0 0 650 620"><defs><style>.cls-1{fill:#ed1c40;}.cls-2{fill:#fff;}</style></defs><title>meetup-logo</title><path class="cls-1" d="M640.41,728.11a28.36,28.36,0,1,0,39.46,7.21,28.33,28.33,0,0,0-39.46-7.21M474.83,777.64a17.5,17.5,0,1,0,24.34,4.44,17.5,17.5,0,0,0-24.34-4.44m-201.15-81.3a12.59,12.59,0,1,0,9.65-15,12.58,12.58,0,0,0-9.65,15M225.23,501.6a27.08,27.08,0,1,0-37.65,7,27.07,27.07,0,0,0,37.65-7M317.8,327a20.56,20.56,0,1,0-28.61-5.22A20.56,20.56,0,0,0,317.8,327m61.29-126.1a14.39,14.39,0,1,0-11,17.11,14.38,14.38,0,0,0,11-17.11m183.53,19a26.87,26.87,0,1,0-9.21,36.85,26.88,26.88,0,0,0,9.21-36.85m131.85,192a120.73,120.73,0,0,0-161.7-122.67c-45.07-28.87-104.69-30.08-151.48,2.24a136.14,136.14,0,0,0-50.07,63.87,90.08,90.08,0,0,0-39.58,14.92c-40.4,27.91-51.06,82.33-25.43,123.58-34.79,31.86-42.81,84.9-16.38,125.87C265.51,644,290.14,658.67,316.6,663a105.41,105.41,0,0,0,165.45,84.11c1.83-1.28,3.25-2.88,5-4.24,26.73,23.85,66.87,27.79,97.65,6.52a78.79,78.79,0,0,0,31.52-45.79c24.09.89,48.62-5.23,70-20a115.75,115.75,0,0,0,32.2-156.79,66.4,66.4,0,0,0-23.9-114.92m57.89-16.45a22.89,22.89,0,1,0-31.85-5.82,22.88,22.88,0,0,0,31.85,5.82m44.3,133.87a17,17,0,1,0-13,20.23,17,17,0,0,0,13-20.23m28.86-82.06a12.66,12.66,0,1,0-9.7,15,12.67,12.67,0,0,0,9.7-15" transform="translate(-175.81 -189.53)"/><path class="cls-2" d="M633.09,616.29c-3.91-25-50.16-5.71-53-33.07-4-38.83,53.71-122.5,49.15-155-4.09-29.24-23.8-35.37-41-35.67-16.66-.3-21.07,2.36-26.7,5.63-3.25,1.88-7.91,5.61-14.4-.55-4.3-4.1-7.15-7-11.71-10.61a24.35,24.35,0,0,0-12.2-5.1c-6.2-.91-14.22,0-19.32,2.18s-9.11,6-13.31,9.66-14.82,15.55-24.73,11.16c-4.3-1.9-18.85-9.17-29.36-13.72-20.28-8.77-49.52,5.44-60.05,24.16-15.68,27.84-46.62,137.24-51.3,151.67-10.51,32.39,13.32,58.8,45.44,57.28,13.58-.64,22.62-5.6,31.2-21.2,5-9,51.54-130.63,55-136.47,2.51-4.22,10.89-9.81,18-6.17s8.52,11.24,7.47,18.4c-1.7,11.58-34.55,85.78-35.81,94.17-2.14,14.28,4.64,22.22,19.46,23,10.16.54,20.28-3.11,28.32-18.26,4.5-8.48,56.3-112.19,60.88-119.12,5-7.59,9.09-10.1,14.22-9.83,4,.2,10.35,1.22,8.76,13.15-1.56,11.7-43.22,87.8-47.58,106.44-5.85,24.91,7.83,50.14,30.36,61.19,14.37,7,77.25,19.1,72.18-13.32" transform="translate(-175.81 -189.53)"/></svg>