<svg id="Layer_1" data-name="Layer 1" xmlns="http://www.w3.org/2000/svg" viewBox="0 0 1366 343.08"><defs><style>.skyline{fill:#fff;}</style></defs><title>skyline</title><path class="skyline" d="M0,342.81H1366V250.49h-2.09c-8.46-10-9.27-13.62-1.49-26.35h-7a129.93,129.93,0,0,0-19.25-11.6V186.62h1.09v-1.31h-1.09v-7.44h1.09v-1.3h-.3v-1.49h-1.24v-1.65h-6.79v-1.15l-4.54-4h-2.12v-2.2h-2.1v2.2h-4v-2.2H1314v2.2h-4v-2.2h-2.11v2.2h-4.06v-2.2h-2.09v2.2h-2.12l-4.55,4v1.15h-6.79v1.65H1287v1.49h-.3v1.3h1.09v7.44h-1.09v1.31h1.09V197.3c-5.61-1-11.37-1.67-17.24-2.16v-1.55h-5.41V193H1262v.61h-3.2v.9l-2.12-.05v-1.18h-3v1.15h-1.94v-.78H1245v.92l-1.06,0v-1h-3.25v1.12l-.84.05v-1.17h-4v1.46q-6.79.54-13.35,1.49V187.7h-10v-1.12h-3.84v-2.22h-3.08v2.22h-5v-.36h-3.84v.36h-5.39v1.12h-3.08v17.09c-1.33.46-2.65.92-4,1.41V110.09h-17.62V102h-29.89v8.1h-13.1V222.64h-6.84v-126h-4V88.08h-2.64V79h-3.71V70.31h-12.9V69.06h-22.75v1.25h-2V79h-3.71v9h-2.64v8.55h-3.94v126H1054V190.32H1036.9V115.55h4.27v-1h-4.27v-2.29h5.4v-1H1038v-3.55H1039v-1h-15v-6.06h1.29v-1l-8.88-1h-7.76v-1h-.78l-1.58-1.53-.91-28.69-.89,28.68-1.6,1.54h-.76v1h-2.44V97.27c1-.33,1.67-.88,1.67-1.4,0-.7-1.23-1.08-2.73-.87s-2.72,1-2.72,1.66c0,.52.68.87,1.65.92v.91h-3.2l-8.88,1v1h1.29v6.06h-7.41V86.17h-4.8V73.54h-3.33v-4.8L967,65.1H921.58l-4.26,3.64v4.8H914V86.17h-4.78v22.48h-7V210l-11.77,4.55v-27.7h-8V68.92l4.56-1V59.06h-1v-1.6l6.32-.73L886,56v-.72H884.5V54l-1.72-.23V52.64h-2.86v.7l-.87-.12-1.32-2h-3.19V50h-1.38V49.1a1.13,1.13,0,0,0,.23-.67,1.08,1.08,0,1,0-1.27,1.07V50H870v1.66h-3.54v1.22h-4.71l-.79-26-.79,26h-2.07V51.75h-.91V50.31h-1.26v1.44h-3.78v1.11h-2.63V50.64h-1.61v2.22h-2.42L837.33,54v1.33h-1.48V56l-6.3.72,6.3.73v1.6h-1v8.86l4.54,1v86.82H838v-2.43h-1.35V143.12h1v-1.63h-3.79V138h.42v-1.18h-.57c0-.06,0-.11,0-.17,0-2.16-1.46-3.91-3.25-3.91s-3.24,1.75-3.24,3.91a1,1,0,0,0,0,.17h-.57V138h.4v3.45h-3.77v1.63h.94v10.19h-1.35v2.43h-2.52v5.57H818.7v10.27h-7.47v-11.3h-2.16v-6.85h.42v-1.27H809v-.07a6,6,0,0,0-2.27-4.82,6.43,6.43,0,0,0-1.61-4V140.9c-.51-1.11-1.78-1.09-2.14,0v2.4a6.43,6.43,0,0,0-1.61,4,6,6,0,0,0-2.27,4.82v.07h-.52v1.27H799v6.85h-2.63V155.5H794.7v-1.17h-5.8v-1.11h-1.19v-3.64h1.19v-2.21h-1.19v-3.63h1.19v-2.22h-1.19v-3.63h1.19v-2.21h-1.19V132h1.19v-2.21h-1.19v-3.64h1.19V124h-1.19v-3.63h1.19v-2.22h-1.19V114.5h1.19v-2.21h-1.19v-3.64h1.19v-2.21h-8.75v-2h1.21v-2.21h-1.21V98.62h1.21V96.4H771.9V94.18h1.17V92H771.9V88.34h1.17V86.12H765.5V83.9h1.21V81.69H765.5V78.06h1.21V75.84H747.88V42.11h-3V38.73h-3.54v-4.3h-2.48V26.08H716V23h-.66v-.88H714V23h-1.7V19.88H711v1.9h-1.57V23h-1.18v3H693.73V24.94h-9.56v1.14h-1.56v-.76H681.3V17.86h-1v7.46h-2v.76H666.5v8.35H664v4.3h-3.53v3.38h-3V164.72H644.41v55.51H637.6V6.11H615.9V-.27H580.23V6.11h-21.7V137.7h-3.8v-2.36h-4.05v68.07h-8.5v13.34h-4.64V188.82H525.77V133.15H504.12V128.8H488.41v4.35h-7.73V68.43h-40V149h-3.94v45.08H428V105.39h1.13V102H428v-.92h1.13V95.81H428V81.41h-2.88v4.17h-2v-7H398v7h-2V81.41h-2.86v14.4H392v5.25h1.14V102H392v3.41h1.14v19H361.05v42.93H348.72v8.57h-10v1.66h-2v-7.9H315.89V72.43h-21L256.78,92.72v82.75h-7.87v47.17h-5.46V84.25h-5.68V82.14h-23.6V80h-5.25V73.27h-.87V80h-11.8v2.11h-7.87v2.11h-8.74V222.64h-5v-51.4h-3.92v-3.61h-4.92V133.47h-3.61v-3.84h-3v-2.17l-8.09-4.33h-23.9l-8.1,4.33v2.17h-3v3.84h-3.61v35.61h-5.79v-5.71H98.82v-.54H97v.54H72.39v-1.19h-.9v1.19H64.17v5.71H48.32v-2H45.73v-2.29H40.66v2.29H36.4v-2H24.69v4H23.13v41.24H1.19v36H0ZM787.71,155.43h.58v.07h-.58Z" transform="translate(0 0.27)"/></svg>