<?xml version="1.0" encoding="utf-8"?>
<!-- Generator: Adobe Illustrator 22.1.0, SVG Export Plug-In . SVG Version: 6.00 Build 0)  -->
<svg version="1.1" id="Layer_1" xmlns="http://www.w3.org/2000/svg" xmlns:xlink="http://www.w3.org/1999/xlink" x="0px" y="0px"
	 viewBox="0 0 122 126" style="enable-background:new 0 0 122 126;" xml:space="preserve">
<style type="text/css">
	.st0{filter:url(#Adobe_OpacityMaskFilter);}
	.st1{fill:#FFFFFF;}
	.st2{mask:url(#mask-2_1_);fill:#DFA22F;}
	.st3{filter:url(#Adobe_OpacityMaskFilter_1_);}
	.st4{mask:url(#mask-2_2_);fill:#3CB187;}
	.st5{fill:#CE1E5B;}
	.st6{fill:#392538;}
	.st7{fill:#BB242A;}
	.st8{fill:#72C5CD;}
	.st9{fill:#238C73;}
	.st10{fill:#62803A;}
</style>
<title>slack_cmyk</title>
<desc>Created with Sketch.</desc>
<defs>
	<filter id="Adobe_OpacityMaskFilter" filterUnits="userSpaceOnUse" x="57.9" y="4" width="49.8" height="107.8">
		<feColorMatrix  type="matrix" values="1 0 0 0 0  0 1 0 0 0  0 0 1 0 0  0 0 0 1 0"/>
	</filter>
</defs>
<mask maskUnits="userSpaceOnUse" x="57.9" y="4" width="49.8" height="107.8" id="mask-2_1_">
	<g class="st0">
		<polygon id="path-1_1_" class="st1" points="14.4,125.9 107.7,125.9 107.7,4 14.4,4 		"/>
	</g>
</mask>
<path id="Fill-1" class="st2" d="M79.1,11.5c-1.9-5.7-8-8.8-13.7-7c-5.7,1.9-8.8,8-7,13.7l28.1,86.4c1.9,5.3,7.7,8.3,13.2,6.7
	c5.8-1.7,9.3-7.8,7.4-13.4C107.1,97.8,79.1,11.5,79.1,11.5"/>
<defs>
	<filter id="Adobe_OpacityMaskFilter_1_" filterUnits="userSpaceOnUse" x="14.4" y="18.2" width="49.8" height="107.8">
		<feColorMatrix  type="matrix" values="1 0 0 0 0  0 1 0 0 0  0 0 1 0 0  0 0 0 1 0"/>
	</filter>
</defs>
<mask maskUnits="userSpaceOnUse" x="14.4" y="18.2" width="49.8" height="107.8" id="mask-2_2_">
	<g class="st3">
		<polygon id="path-1_2_" class="st1" points="14.4,125.9 107.7,125.9 107.7,4 14.4,4 		"/>
	</g>
</mask>
<path id="Fill-3" class="st4" d="M35.6,25.7c-1.9-5.7-8-8.8-13.7-7c-5.7,1.9-8.8,8-7,13.7L43,118.8c1.9,5.3,7.7,8.3,13.2,6.7
	c5.8-1.7,9.3-7.8,7.4-13.4C63.6,111.9,35.6,25.7,35.6,25.7"/>
<path id="Fill-5" class="st5" d="M114.5,83.1c5.7-1.9,8.8-8,7-13.7c-1.9-5.7-8-8.8-13.7-7L21.3,90.6c-5.3,1.9-8.3,7.7-6.7,13.2
	c1.7,5.8,7.8,9.3,13.4,7.4C28.2,111.1,114.5,83.1,114.5,83.1"/>
<path id="Fill-6" class="st6" d="M39.3,107.5c5.6-1.8,12.9-4.2,20.7-6.7c-1.8-5.6-4.2-12.9-6.7-20.7l-20.7,6.7L39.3,107.5"/>
<path id="Fill-7" class="st7" d="M82.8,93.4c7.8-2.5,15.1-4.9,20.7-6.7c-1.8-5.6-4.2-12.9-6.7-20.7l-20.7,6.7L82.8,93.4"/>
<path id="Fill-9" class="st8" d="M100.3,39.6c5.7-1.9,8.8-8,7-13.7c-1.9-5.7-8-8.8-13.7-7L7.2,47C1.8,49-1.2,54.7,0.4,60.2
	c1.7,5.8,7.8,9.3,13.4,7.4C14.1,67.6,100.3,39.6,100.3,39.6"/>
<path id="Fill-11" class="st9" d="M25.2,64c5.6-1.8,12.9-4.2,20.7-6.7c-2.5-7.8-4.9-15.1-6.7-20.7l-20.7,6.7L25.2,64"/>
<path id="Fill-12" class="st10" d="M68.7,49.9c7.8-2.5,15.1-4.9,20.7-6.7c-2.5-7.8-4.9-15.1-6.7-20.7L62,29.2L68.7,49.9"/>
</svg>
